<svg width="21" height="21" viewBox="0 0 21 21" fill="none" xmlns="http://www.w3.org/2000/svg">
<path d="M1 4.5625C1 3.45589 1 2.90258 1.18079 2.46613C1.42183 1.88419 1.88419 1.42183 2.46613 1.18079C2.90258 1 3.45589 1 4.5625 1C5.66911 1 6.22242 1 6.65887 1.18079C7.24082 1.42183 7.70317 1.88419 7.94421 2.46613C8.125 2.90258 8.125 3.45589 8.125 4.5625C8.125 5.66911 8.125 6.22242 7.94421 6.65887C7.70317 7.24082 7.24082 7.70317 6.65887 7.94421C6.22242 8.125 5.66911 8.125 4.5625 8.125C3.45589 8.125 2.90258 8.125 2.46613 7.94421C1.88419 7.70317 1.42183 7.24082 1.18079 6.65887C1 6.22242 1 5.66911 1 4.5625Z" stroke="#FAFAFA" stroke-width="1.5"/>
<path d="M12.875 4.5625C12.875 3.45589 12.875 2.90258 13.0558 2.46613C13.2968 1.88419 13.7592 1.42183 14.3411 1.18079C14.7776 1 15.3309 1 16.4375 1C17.5441 1 18.0974 1 18.5339 1.18079C19.1158 1.42183 19.5782 1.88419 19.8192 2.46613C20 2.90258 20 3.45589 20 4.5625C20 5.66911 20 6.22242 19.8192 6.65887C19.5782 7.24082 19.1158 7.70317 18.5339 7.94421C18.0974 8.125 17.5441 8.125 16.4375 8.125C15.3309 8.125 14.7776 8.125 14.3411 7.94421C13.7592 7.70317 13.2968 7.24082 13.0558 6.65887C12.875 6.22242 12.875 5.66911 12.875 4.5625Z" stroke="#FAFAFA" stroke-width="1.5"/>
<path d="M1 16.4375C1 15.3309 1 14.7776 1.18079 14.3411C1.42183 13.7592 1.88419 13.2968 2.46613 13.0558C2.90258 12.875 3.45589 12.875 4.5625 12.875C5.66911 12.875 6.22242 12.875 6.65887 13.0558C7.24082 13.2968 7.70317 13.7592 7.94421 14.3411C8.125 14.7776 8.125 15.3309 8.125 16.4375C8.125 17.5441 8.125 18.0974 7.94421 18.5339C7.70317 19.1158 7.24082 19.5782 6.65887 19.8192C6.22242 20 5.66911 20 4.5625 20C3.45589 20 2.90258 20 2.46613 19.8192C1.88419 19.5782 1.42183 19.1158 1.18079 18.5339C1 18.0974 1 17.5441 1 16.4375Z" stroke="#FAFAFA" stroke-width="1.5"/>
<path d="M12.875 16.4375C12.875 15.3309 12.875 14.7776 13.0558 14.3411C13.2968 13.7592 13.7592 13.2968 14.3411 13.0558C14.7776 12.875 15.3309 12.875 16.4375 12.875C17.5441 12.875 18.0974 12.875 18.5339 13.0558C19.1158 13.2968 19.5782 13.7592 19.8192 14.3411C20 14.7776 20 15.3309 20 16.4375C20 17.5441 20 18.0974 19.8192 18.5339C19.5782 19.1158 19.1158 19.5782 18.5339 19.8192C18.0974 20 17.5441 20 16.4375 20C15.3309 20 14.7776 20 14.3411 19.8192C13.7592 19.5782 13.2968 19.1158 13.0558 18.5339C12.875 18.0974 12.875 17.5441 12.875 16.4375Z" stroke="#FAFAFA" stroke-width="1.5"/>
</svg>
