<svg width="22" height="21" viewBox="0 0 22 21" fill="none" xmlns="http://www.w3.org/2000/svg">
<path d="M10.6692 17.9506L11.1051 18.5609L11.1051 18.5609L10.6692 17.9506ZM10.7222 17.9128L10.2902 17.2997L10.7222 17.9128ZM13.5703 17.0001L13.5751 17.7501L13.5703 17.0001ZM6.3959 18.5103L7.09226 18.7888L6.3959 18.5103ZM8.05848 19.8154L7.62255 19.2051L7.62255 19.2051L8.05848 19.8154ZM20.798 13.4069L21.5177 13.6179L20.798 13.4069ZM17.4069 16.798L17.6179 17.5177L17.4069 16.798ZM3.73005 1.54497L4.07054 2.21322L3.73005 1.54497ZM1.54497 3.73005L2.21322 4.07054L1.54497 3.73005ZM18.27 1.54497L17.9295 2.21322L18.27 1.54497ZM20.455 3.73005L19.7868 4.07054L20.455 3.73005ZM7 10.25C6.58579 10.25 6.25 10.5858 6.25 11C6.25 11.4142 6.58579 11.75 7 11.75V10.25ZM15 11.75C15.4142 11.75 15.75 11.4142 15.75 11C15.75 10.5858 15.4142 10.25 15 10.25V11.75ZM7 6.25C6.58579 6.25 6.25 6.58579 6.25 7C6.25 7.41421 6.58579 7.75 7 7.75L7 6.25ZM11 7.75C11.4142 7.75 11.75 7.41421 11.75 7C11.75 6.58579 11.4142 6.25 11 6.25L11 7.75ZM13 0.25H9V1.75H13V0.25ZM0.25 9V13.2283H1.75V9H0.25ZM21.75 10.1842V9H20.25V10.1842H21.75ZM4.77166 17.75H5.37341V16.25H4.77166V17.75ZM8.49441 20.4257L11.1051 18.5609L10.2333 17.3403L7.62255 19.2051L8.49441 20.4257ZM13.6354 17.75H14.1842V16.25H13.6354V17.75ZM11.1051 18.5609C11.1325 18.5413 11.1436 18.5334 11.1543 18.5259L10.2902 17.2997C10.2747 17.3107 10.2592 17.3218 10.2333 17.3403L11.1051 18.5609ZM13.6354 16.25C13.6036 16.25 13.5845 16.25 13.5655 16.2501L13.5751 17.7501C13.5882 17.75 13.6018 17.75 13.6354 17.75V16.25ZM11.1543 18.5259C11.8632 18.0264 12.7079 17.7556 13.5751 17.7501L13.5655 16.2501C12.3922 16.2576 11.2493 16.6239 10.2902 17.2997L11.1543 18.5259ZM5.37341 17.75C5.62191 17.75 5.79183 18.001 5.69954 18.2317L7.09226 18.7888C7.57867 17.5728 6.68311 16.25 5.37341 16.25V17.75ZM5.69954 18.2317C5.01288 19.9484 6.9899 21.5003 8.49441 20.4257L7.62255 19.2051C7.33709 19.409 6.96197 19.1145 7.09226 18.7888L5.69954 18.2317ZM20.25 10.1842C20.25 11.9261 20.2424 12.6363 20.0783 13.1958L21.5177 13.6179C21.7576 12.7996 21.75 11.8206 21.75 10.1842H20.25ZM14.1842 17.75C15.8206 17.75 16.7996 17.7576 17.6179 17.5177L17.1958 16.0783C16.6363 16.2424 15.9261 16.25 14.1842 16.25V17.75ZM20.0783 13.1958C19.671 14.5848 18.5848 15.671 17.1958 16.0783L17.6179 17.5177C19.4971 16.9667 20.9667 15.4971 21.5177 13.6179L20.0783 13.1958ZM0.25 13.2283C0.25 15.7256 2.27441 17.75 4.77166 17.75V16.25C3.10284 16.25 1.75 14.8972 1.75 13.2283H0.25ZM9 0.25C7.61224 0.25 6.52632 0.249417 5.65494 0.320612C4.77479 0.392522 4.04768 0.541378 3.38955 0.876713L4.07054 2.21322C4.48197 2.00359 4.9897 1.87996 5.77708 1.81563C6.57322 1.75058 7.58749 1.75 9 1.75V0.25ZM1.75 9C1.75 7.58749 1.75058 6.57322 1.81563 5.77708C1.87996 4.9897 2.00359 4.48197 2.21322 4.07054L0.876713 3.38955C0.541378 4.04768 0.392522 4.77479 0.320612 5.65494C0.249417 6.52632 0.25 7.61224 0.25 9H1.75ZM3.38955 0.876713C2.30762 1.42798 1.42798 2.30762 0.876713 3.38955L2.21322 4.07054C2.62068 3.27085 3.27085 2.62068 4.07054 2.21322L3.38955 0.876713ZM13 1.75C14.4125 1.75 15.4268 1.75058 16.2229 1.81563C17.0103 1.87996 17.518 2.00359 17.9295 2.21322L18.6104 0.876713C17.9523 0.541378 17.2252 0.392522 16.3451 0.320612C15.4737 0.249417 14.3878 0.25 13 0.25V1.75ZM21.75 9C21.75 7.61224 21.7506 6.52632 21.6794 5.65494C21.6075 4.77479 21.4586 4.04768 21.1233 3.38955L19.7868 4.07054C19.9964 4.48197 20.12 4.9897 20.1844 5.77708C20.2494 6.57322 20.25 7.58749 20.25 9H21.75ZM17.9295 2.21322C18.7291 2.62068 19.3793 3.27085 19.7868 4.07054L21.1233 3.38955C20.572 2.30762 19.6924 1.42798 18.6104 0.876713L17.9295 2.21322ZM7 11.75H15V10.25H7V11.75ZM7 7.75L11 7.75L11 6.25L7 6.25L7 7.75Z" fill="#FAFAFA"/>
</svg>
