<svg width="12" height="12" viewBox="0 0 12 12" fill="none" xmlns="http://www.w3.org/2000/svg">
<path d="M7.89 8.565C7.98 8.655 8.085 8.7 8.205 8.7C8.325 8.7 8.435 8.65 8.535 8.55C8.635 8.45 8.6875 8.335 8.6925 8.205C8.6975 8.075 8.65 7.965 8.55 7.875L6.495 5.82V3.24C6.495 3.12 6.4525 3.0175 6.3675 2.9325C6.2825 2.8475 6.175 2.805 6.045 2.805C5.915 2.805 5.8075 2.8475 5.7225 2.9325C5.6375 3.0175 5.595 3.125 5.595 3.255V6C5.595 6.06 5.605 6.115 5.625 6.165C5.645 6.215 5.675 6.265 5.715 6.315L7.89 8.565ZM6 12C5.18 12 4.405 11.8425 3.675 11.5275C2.945 11.2125 2.3075 10.7825 1.7625 10.2375C1.2175 9.6925 0.7875 9.055 0.4725 8.325C0.1575 7.595 0 6.82 0 6C0 5.18 0.1575 4.405 0.4725 3.675C0.7875 2.945 1.2175 2.3075 1.7625 1.7625C2.3075 1.2175 2.945 0.7875 3.675 0.4725C4.405 0.1575 5.18 0 6 0C6.82 0 7.595 0.1575 8.325 0.4725C9.055 0.7875 9.6925 1.2175 10.2375 1.7625C10.7825 2.3075 11.2125 2.945 11.5275 3.675C11.8425 4.405 12 5.18 12 6C12 6.82 11.8425 7.595 11.5275 8.325C11.2125 9.055 10.7825 9.6925 10.2375 10.2375C9.6925 10.7825 9.055 11.2125 8.325 11.5275C7.595 11.8425 6.82 12 6 12ZM6 11.1C7.4 11.1 8.6 10.6 9.6 9.6C10.6 8.6 11.1 7.4 11.1 6C11.1 4.6 10.6 3.4 9.6 2.4C8.6 1.4 7.4 0.9 6 0.9C4.6 0.9 3.4 1.4 2.4 2.4C1.4 3.4 0.9 4.6 0.9 6C0.9 7.4 1.4 8.6 2.4 9.6C3.4 10.6 4.6 11.1 6 11.1Z" fill="black"/>
</svg>
