<svg width="40" height="40" viewBox="0 0 40 40" fill="none" xmlns="http://www.w3.org/2000/svg">
<circle cx="20" cy="20" r="20" fill="#DB5555"/>
<path d="M25.4917 18.781C26.3667 19.184 27.1917 19.6896 27.9583 20.2901L27.0667 21.1354C26.5833 20.7641 26.0583 20.4323 25.5 20.1321V18.781H25.4917ZM14.5 18.781V20.1242C13.9583 20.4165 13.4333 20.7483 12.9417 21.1275L12.05 20.2822C12.8083 19.6896 13.6333 19.1919 14.5 18.781ZM20 16C16.2167 16 12.7833 17.4063 10.2417 19.6896C10.0917 19.8318 10 20.0293 10 20.2506C10 20.4718 10.0917 20.6693 10.2417 20.8036L12.3083 22.763C12.4583 22.9052 12.6667 22.9921 12.9 22.9921C13.125 22.9921 13.3333 22.9131 13.4833 22.7709C14.1417 22.1941 14.8833 21.6964 15.7 21.3093C15.975 21.1828 16.1667 20.9063 16.1667 20.5982V18.149C17.375 17.7777 18.6667 17.5801 20 17.5801C21.3333 17.5801 22.625 17.7777 23.825 18.1569V20.6061C23.825 20.9221 24.0167 21.1907 24.2917 21.3172C25.1083 21.7043 25.8583 22.1941 26.5167 22.7788C26.6667 22.9131 26.875 23 27.1 23C27.3333 23 27.5417 22.9131 27.6917 22.7709L29.7583 20.8115C29.9083 20.6693 30 20.4718 30 20.2506C30 20.0293 29.9083 19.8318 29.7583 19.6896C27.2167 17.4063 23.7833 16 20 16Z" fill="#FAFAFA"/>
</svg>
