<svg width="19" height="19" viewBox="0 0 19 19" fill="none" xmlns="http://www.w3.org/2000/svg">
<path d="M5.89755 6.27736L5.89754 6.27731H0.917791C0.633904 6.27731 0.4 6.0434 0.4 5.75952C0.4 5.47563 0.633911 5.24173 0.917791 5.24173H4.97951H5.37951V4.84173V0.940497C5.37951 0.656609 5.61342 0.422705 5.8973 0.422705C6.18117 0.422705 6.41509 0.656622 6.41509 0.940497V5.78244V5.78259C6.41519 6.05321 6.19477 6.27731 5.89755 6.27736Z" fill="#FAFAFA" stroke="#FAFAFA" stroke-width="0.8"/>
<path d="M12.241 5.66791V5.6679L12.2408 0.917791C12.2408 0.917786 12.2408 0.917781 12.2408 0.917775C12.2408 0.633895 12.4747 0.4 12.7586 0.4C13.0425 0.4 13.2764 0.633918 13.2764 0.917791V4.77299V5.17299H13.6764H17.6003C17.8842 5.17299 18.1181 5.4069 18.1181 5.69078L18.1181 5.69108C18.1183 5.94912 17.8882 6.18568 17.5776 6.1857C17.5776 6.1857 17.5776 6.1857 17.5776 6.1857H12.7588C12.4749 6.1857 12.241 5.95179 12.241 5.66791Z" fill="#FAFAFA" stroke="#FAFAFA" stroke-width="0.8"/>
<path d="M5.81363 18.6H5.80555C5.52166 18.6 5.28776 18.3661 5.28776 18.0822V18.0822L5.28757 14.2729L5.28755 13.873H4.88757H0.940741C0.656853 13.873 0.422949 13.6391 0.422949 13.3552C0.422949 13.0713 0.656862 12.8374 0.940741 12.8374H0.940756L5.80565 12.8372C5.80566 12.8372 5.80566 12.8372 5.80567 12.8372C6.08955 12.8372 6.32344 13.0711 6.32344 13.355V18.1051C6.32344 18.3638 6.11607 18.596 5.81363 18.6Z" fill="#FAFAFA" stroke="#FAFAFA" stroke-width="0.8"/>
<path d="M13.6307 13.8498H13.2307V14.2498V18.105C13.2307 18.3594 13.0033 18.5999 12.7127 18.5999C12.4288 18.5999 12.1949 18.366 12.1949 18.0822V13.332C12.1949 13.0481 12.4288 12.8142 12.7127 12.8142H17.5547C17.8385 12.8142 18.0724 13.0482 18.0724 13.332C18.0724 13.6159 17.8385 13.8498 17.5547 13.8498H13.6307Z" fill="#FAFAFA" stroke="#FAFAFA" stroke-width="0.8"/>
</svg>
