<svg width="20" height="20" viewBox="0 0 20 20" fill="none" xmlns="http://www.w3.org/2000/svg">
<path d="M6.25 10C6.25 10.4142 6.58579 10.75 7 10.75C7.41421 10.75 7.75 10.4142 7.75 10L6.25 10ZM7.75 4C7.75 3.58579 7.41421 3.25 7 3.25C6.58579 3.25 6.25 3.58579 6.25 4L7.75 4ZM13.75 10C13.75 9.58579 13.4142 9.25 13 9.25C12.5858 9.25 12.25 9.58579 12.25 10H13.75ZM12.25 16C12.25 16.4142 12.5858 16.75 13 16.75C13.4142 16.75 13.75 16.4142 13.75 16H12.25ZM3.06107 18.0451L3.50191 17.4383L3.06107 18.0451ZM1.95491 16.9389L2.56168 16.4981L1.95491 16.9389ZM18.0451 16.9389L17.4383 16.4981L18.0451 16.9389ZM16.9389 18.0451L16.4981 17.4383L16.9389 18.0451ZM16.9389 1.95491L16.4981 2.56168L16.9389 1.95491ZM18.0451 3.06107L17.4383 3.50191L18.0451 3.06107ZM3.06107 1.95491L3.50191 2.56168L3.06107 1.95491ZM1.95491 3.06107L2.56168 3.50191L1.95491 3.06107ZM7.75 10L7.75 4L6.25 4L6.25 10L7.75 10ZM12.25 10V16H13.75V10H12.25ZM6.99995 16.75C8.51873 16.75 9.74995 15.5187 9.74995 14L8.24995 14C8.24995 14.6903 7.6903 15.25 6.99995 15.25L6.99995 16.75ZM9.74995 14C9.74995 12.4812 8.51873 11.25 6.99995 11.25L6.99995 12.75C7.6903 12.75 8.24995 13.3096 8.24995 14L9.74995 14ZM6.99995 11.25C5.48117 11.25 4.24995 12.4812 4.24995 14L5.74995 14C5.74995 13.3096 6.30959 12.75 6.99995 12.75L6.99995 11.25ZM4.24995 14C4.24995 15.5187 5.48117 16.75 6.99995 16.75L6.99995 15.25C6.30959 15.25 5.74995 14.6903 5.74995 14L4.24995 14ZM12.9999 3.24996C11.4812 3.24996 10.2499 4.48118 10.2499 5.99996L11.7499 5.99996C11.7499 5.3096 12.3096 4.74996 12.9999 4.74996L12.9999 3.24996ZM10.2499 5.99996C10.2499 7.51874 11.4812 8.74996 12.9999 8.74996L12.9999 7.24996C12.3096 7.24996 11.7499 6.69032 11.7499 5.99996L10.2499 5.99996ZM12.9999 8.74996C14.5187 8.74996 15.7499 7.51874 15.7499 5.99996L14.2499 5.99996C14.2499 6.69032 13.6903 7.24996 12.9999 7.24996L12.9999 8.74996ZM15.7499 5.99996C15.7499 4.48118 14.5187 3.24996 12.9999 3.24996L12.9999 4.74996C13.6903 4.74996 14.2499 5.3096 14.2499 5.99996L15.7499 5.99996ZM10 18.25C8.10843 18.25 6.74999 18.249 5.69804 18.135C4.66013 18.0225 4.00992 17.8074 3.50191 17.4383L2.62023 18.6518C3.42656 19.2377 4.37094 19.5 5.53648 19.6263C6.68798 19.751 8.14184 19.75 10 19.75V18.25ZM0.25 10C0.25 11.8582 0.248971 13.312 0.373728 14.4635C0.500006 15.6291 0.762324 16.5734 1.34815 17.3798L2.56168 16.4981C2.19259 15.9901 1.97745 15.3399 1.865 14.302C1.75103 13.25 1.75 11.8916 1.75 10H0.25ZM3.50191 17.4383C3.14111 17.1762 2.82382 16.8589 2.56168 16.4981L1.34815 17.3798C1.70281 17.8679 2.13209 18.2972 2.62023 18.6518L3.50191 17.4383ZM18.25 10C18.25 11.8916 18.249 13.25 18.135 14.302C18.0225 15.3399 17.8074 15.9901 17.4383 16.4981L18.6518 17.3798C19.2377 16.5734 19.5 15.6291 19.6263 14.4635C19.751 13.312 19.75 11.8582 19.75 10H18.25ZM10 19.75C11.8582 19.75 13.312 19.751 14.4635 19.6263C15.6291 19.5 16.5734 19.2377 17.3798 18.6518L16.4981 17.4383C15.9901 17.8074 15.3399 18.0225 14.302 18.135C13.25 18.249 11.8916 18.25 10 18.25V19.75ZM17.4383 16.4981C17.1762 16.8589 16.8589 17.1762 16.4981 17.4383L17.3798 18.6518C17.8679 18.2972 18.2972 17.8679 18.6518 17.3798L17.4383 16.4981ZM10 1.75C11.8916 1.75 13.25 1.75103 14.302 1.865C15.3399 1.97745 15.9901 2.19259 16.4981 2.56168L17.3798 1.34815C16.5734 0.762324 15.6291 0.500006 14.4635 0.373728C13.312 0.248971 11.8582 0.25 10 0.25V1.75ZM19.75 10C19.75 8.14184 19.751 6.68798 19.6263 5.53648C19.5 4.37094 19.2377 3.42656 18.6518 2.62023L17.4383 3.50191C17.8074 4.00992 18.0225 4.66013 18.135 5.69804C18.249 6.74999 18.25 8.10843 18.25 10H19.75ZM16.4981 2.56168C16.8589 2.82382 17.1762 3.14111 17.4383 3.50191L18.6518 2.62023C18.2972 2.13209 17.8679 1.70281 17.3798 1.34815L16.4981 2.56168ZM10 0.25C8.14184 0.25 6.68798 0.248971 5.53648 0.373728C4.37094 0.500006 3.42656 0.762324 2.62023 1.34815L3.50191 2.56168C4.00992 2.19259 4.66013 1.97745 5.69804 1.865C6.74999 1.75103 8.10843 1.75 10 1.75V0.25ZM1.75 10C1.75 8.10843 1.75103 6.74999 1.865 5.69804C1.97745 4.66013 2.19259 4.00992 2.56168 3.50191L1.34815 2.62023C0.762324 3.42656 0.500006 4.37094 0.373728 5.53648C0.248971 6.68798 0.25 8.14184 0.25 10H1.75ZM2.62023 1.34815C2.13209 1.70281 1.70281 2.13209 1.34815 2.62023L2.56168 3.50191C2.82382 3.14111 3.14111 2.82382 3.50191 2.56168L2.62023 1.34815Z" fill="#2D264B"/>
</svg>
