<svg width="21" height="21" viewBox="0 0 21 21" fill="none" xmlns="http://www.w3.org/2000/svg">
<path d="M1.56754 1.00108C1.24384 1.03503 0.998481 1.30893 1.00022 1.63438V7.12263C0.997782 7.29223 1.06343 7.45557 1.18253 7.57624C1.30146 7.69691 1.46392 7.765 1.63351 7.765C1.80311 7.765 1.96539 7.69692 2.08449 7.57624C2.20358 7.45557 2.26924 7.29224 2.2668 7.12263V2.26736H7.12207C7.2915 2.2698 7.455 2.20415 7.57568 2.08505C7.69635 1.96612 7.76443 1.80366 7.76443 1.63407C7.76443 1.46465 7.69635 1.30219 7.57568 1.18309C7.45501 1.06416 7.29151 0.998345 7.12207 1.00078H1.63337C1.61143 0.999739 1.58931 0.999739 1.56737 1.00078L1.56754 1.00108ZM13.8114 1.00108C13.6435 1.00978 13.4859 1.08501 13.3733 1.20986C13.2606 1.33488 13.2023 1.49943 13.2112 1.66748C13.2293 2.01713 13.5275 2.28598 13.8774 2.2677H18.7326V7.12297C18.7302 7.29257 18.796 7.45591 18.9149 7.57658C19.034 7.69725 19.1965 7.76534 19.3659 7.76534C19.5355 7.76534 19.698 7.69726 19.8169 7.57658C19.936 7.45591 20.0016 7.29258 19.9992 7.12297V1.63472C19.9992 1.28507 19.7157 1.00142 19.3659 1.00142H13.8772C13.8553 1.00037 13.8333 1.00037 13.8112 1.00142L13.8114 1.00108ZM1.62683 13.2315C1.45775 13.2333 1.29634 13.3026 1.17861 13.4241C1.06091 13.5455 0.996653 13.709 1.00013 13.8781V19.3663C1.00013 19.716 1.28361 19.9996 1.63343 19.9996H7.12214C7.29174 20.0021 7.45507 19.9364 7.57575 19.8173C7.69659 19.6984 7.7645 19.5359 7.7645 19.3663C7.7645 19.1968 7.69659 19.0343 7.57575 18.9154C7.45508 18.7963 7.29175 18.7306 7.12214 18.7331H2.26687V13.8778C2.27035 13.7064 2.20436 13.5409 2.08368 13.4191C1.96319 13.2972 1.79829 13.2295 1.62695 13.2313L1.62683 13.2315ZM19.3594 13.2315C19.1903 13.2333 19.0289 13.3026 18.9111 13.4241C18.7934 13.5455 18.7292 13.709 18.7327 13.8781V18.7334H13.8774C13.708 18.7309 13.5445 18.7966 13.4238 18.9157C13.3029 19.0346 13.235 19.1971 13.235 19.3666C13.235 19.5362 13.3029 19.6987 13.4238 19.8176C13.5445 19.9367 13.708 20.0024 13.8774 19.9999H19.3661C19.7159 19.9999 19.9994 19.7163 19.9994 19.3666V13.8784C20.0031 13.707 19.9369 13.5414 19.8164 13.4197C19.6957 13.2978 19.531 13.2301 19.3595 13.2318L19.3594 13.2315Z" fill="#FAFAFA" stroke="#FAFAFA" stroke-width="0.8"/>
</svg>
