<svg width="126" height="46" viewBox="0 0 126 46" fill="none" xmlns="http://www.w3.org/2000/svg">
<mask id="mask0_29_673" style="mask-type:alpha" maskUnits="userSpaceOnUse" x="0" y="1" width="30" height="30">
<path d="M0.0292358 1.4529H29.3476V30.7031H0.0292358V1.4529Z" fill="white"/>
</mask>
<g mask="url(#mask0_29_673)">
<path fill-rule="evenodd" clip-rule="evenodd" d="M14.6502 22.9449C18.5126 22.9572 21.5884 19.9452 21.6217 16.118C21.6547 12.309 18.5989 9.24123 14.7356 9.20495C10.8958 9.16866 7.77064 12.2285 7.76218 16.0335C7.7533 19.8699 10.8055 22.932 14.6502 22.9449ZM0.0292377 16.0871C0.0332421 7.9726 6.5512 1.46396 14.684 1.45289C22.8025 1.44228 29.3298 7.94827 29.3476 16.0685C29.3649 24.1688 22.8452 30.6845 14.704 30.7031C6.6019 30.7217 0.0252369 24.171 0.0292377 16.0871Z" fill="white"/>
</g>
<mask id="mask1_29_673" style="mask-type:alpha" maskUnits="userSpaceOnUse" x="0" y="30" width="30" height="16">
<path d="M0 30.4821H29.3191V45.4381H0V30.4821Z" fill="white"/>
</mask>
<g mask="url(#mask1_29_673)">
<path fill-rule="evenodd" clip-rule="evenodd" d="M-0.000366211 30.4822H7.61651C7.87268 32.9199 8.61049 35.2 10.8871 36.4032C12.1385 37.0643 13.6631 37.5683 15.0537 37.5439C18.7365 37.4798 21.0109 34.9686 21.7385 30.5264H29.319C29.334 35.3518 27.5164 39.2997 23.6988 42.202C18.7459 45.9677 13.297 46.4699 7.80241 43.5884C2.67557 40.8998 0.146839 36.4514 -0.000366211 30.4822Z" fill="white"/>
</g>
<path fill-rule="evenodd" clip-rule="evenodd" d="M38.3203 15.6797C38.3203 12.7305 39.3494 10.2335 41.4081 8.18872C43.4663 6.14395 46.0052 5.12179 49.0245 5.12179C50.9271 5.12179 52.6637 5.55367 54.235 6.41697C55.8057 7.28072 57.0265 8.43342 57.8973 9.87595L54.4622 11.8256C53.9792 11.0025 53.2481 10.3317 52.2684 9.81311C51.2891 9.29407 50.1982 9.03432 48.9965 9.03432C47.0561 9.03432 45.4613 9.66222 44.2121 10.9171C42.9624 12.172 42.338 13.7597 42.338 15.6797C42.338 17.5895 42.9717 19.1657 44.2406 20.4073C45.5085 21.6494 47.1931 22.2702 49.2945 22.2702C50.8466 22.2702 52.1314 21.9312 53.1489 21.2533C54.166 20.5759 54.8549 19.6436 55.2143 18.4563H49.053V14.8965H59.2609V16.4642C59.2609 19.3555 58.3305 21.6981 56.4711 23.4919C54.6112 25.2858 52.2092 26.1827 49.266 26.1827C46.1235 26.1827 43.5139 25.1663 41.4365 23.1335C39.3588 21.1007 38.3203 18.6161 38.3203 15.6797Z" fill="white"/>
<path fill-rule="evenodd" clip-rule="evenodd" d="M67.0387 10.9072C65.781 12.1559 65.1526 13.7423 65.1526 15.6667C65.1526 17.5906 65.781 19.1725 67.0387 20.4115C68.296 21.6505 69.8561 22.27 71.7182 22.27C73.5812 22.27 75.1408 21.6505 76.3985 20.4115C77.6558 19.1725 78.2846 17.5906 78.2846 15.6667C78.2846 13.7423 77.6558 12.1559 76.3985 10.9072C75.1408 9.65891 73.5812 9.03455 71.7182 9.03455C69.8561 9.03455 68.296 9.65891 67.0387 10.9072ZM64.2214 23.1355C62.1636 21.1036 61.1349 18.6163 61.1349 15.6733C61.1349 12.7307 62.1636 10.2364 64.2214 8.19072C66.2787 6.14463 68.7781 5.12158 71.7182 5.12158C74.6587 5.12158 77.1581 6.14463 79.2154 8.19072C81.2732 10.2364 82.3023 12.7307 82.3023 15.6733C82.3023 18.6163 81.2732 21.1036 79.2154 23.1355C77.1581 25.1674 74.6587 26.183 71.7182 26.183C68.7781 26.183 66.2787 25.1674 64.2214 23.1355Z" fill="white"/>
<path fill-rule="evenodd" clip-rule="evenodd" d="M90.0663 10.9072C88.8086 12.1559 88.1802 13.7423 88.1802 15.6667C88.1802 17.5906 88.8086 19.1725 90.0663 20.4115C91.3236 21.6505 92.8837 22.27 94.7458 22.27C96.6087 22.27 98.1684 21.6505 99.4261 20.4115C100.683 19.1725 101.312 17.5906 101.312 15.6667C101.312 13.7423 100.683 12.1559 99.4261 10.9072C98.1684 9.65891 96.6087 9.03455 94.7458 9.03455C92.8837 9.03455 91.3236 9.65891 90.0663 10.9072ZM87.249 23.1355C85.1912 21.1036 84.1625 18.6163 84.1625 15.6733C84.1625 12.7307 85.1912 10.2364 87.249 8.19072C89.3063 6.14463 91.8057 5.12158 94.7458 5.12158C97.6863 5.12158 100.186 6.14463 102.243 8.19072C104.301 10.2364 105.33 12.7307 105.33 15.6733C105.33 18.6163 104.301 21.1036 102.243 23.1355C100.186 25.1674 97.6863 26.183 94.7458 26.183C91.8057 26.183 89.3063 25.1674 87.249 23.1355Z" fill="white"/>
<path fill-rule="evenodd" clip-rule="evenodd" d="M112.13 21.9593H116.19C117.951 21.9593 119.384 21.3748 120.492 20.2057C121.599 19.0371 122.153 17.5166 122.153 15.6449C122.153 13.774 121.602 12.2536 120.499 11.0846C119.396 9.91593 117.96 9.33096 116.19 9.33096H112.13V21.9593ZM108.113 25.7731V5.5171H116.19C118.982 5.5171 121.315 6.49014 123.189 8.43535C125.063 10.3805 126 12.7815 126 15.6383C126 18.4946 125.063 20.8982 123.189 22.8483C121.315 24.7983 118.982 25.7731 116.19 25.7731H108.113Z" fill="white"/>
<path fill-rule="evenodd" clip-rule="evenodd" d="M38.584 42.2553V29.0681H41.2737L45.0815 35.3033L48.8617 29.0681H51.5696V42.2553H48.9542V33.7028L45.2291 39.8278H44.9245L41.1999 33.7213V42.2553H38.584Z" fill="white"/>
<path fill-rule="evenodd" clip-rule="evenodd" d="M54.0096 42.2553V29.0681H62.1157V31.5513H56.6255V34.3833H61.6345V36.8113H56.6255V39.7724H62.2083V42.2553H54.0096Z" fill="white"/>
<path fill-rule="evenodd" clip-rule="evenodd" d="M64.0378 42.2553V29.0681H72.1439V31.5513H66.6537V34.3833H71.6631V36.8113H66.6537V39.7724H72.2364V42.2553H64.0378Z" fill="white"/>
<path fill-rule="evenodd" clip-rule="evenodd" d="M73.0957 31.5512V29.0684H82.8282V31.5512H79.2601V42.2551H76.6446V31.5512H73.0957Z" fill="white"/>
<path fill-rule="evenodd" clip-rule="evenodd" d="M84.279 42.2553H86.8949V29.0681H84.279V42.2553Z" fill="white"/>
<path fill-rule="evenodd" clip-rule="evenodd" d="M89.3439 42.2553V29.0681H91.3314L97.0155 37.1148V29.0681H99.631V42.2553H97.6364L91.9598 34.1904V42.2553H89.3439Z" fill="white"/>
<path fill-rule="evenodd" clip-rule="evenodd" d="M101.479 35.6843C101.479 33.7643 102.15 32.1386 103.49 30.8076C104.83 29.4765 106.483 28.8106 108.448 28.8106C109.687 28.8106 110.817 29.092 111.84 29.654C112.863 30.2164 113.658 30.9669 114.225 31.9058L111.988 33.1749C111.674 32.6395 111.198 32.2027 110.56 31.8647C109.922 31.5271 109.212 31.358 108.43 31.358C107.167 31.358 106.128 31.7664 105.315 32.5837C104.502 33.4006 104.095 34.4342 104.095 35.6843C104.095 36.9277 104.508 37.9534 105.333 38.7623C106.159 39.5707 107.256 39.9747 108.624 39.9747C109.634 39.9747 110.471 39.7543 111.133 39.3127C111.795 38.872 112.244 38.2649 112.478 37.4919H108.467V35.1745H115.112V36.1954C115.112 38.0773 114.507 39.6021 113.296 40.7703C112.085 41.9381 110.522 42.5222 108.605 42.5222C106.56 42.5222 104.861 41.8606 103.508 40.5367C102.156 39.2136 101.479 37.5959 101.479 35.6843Z" fill="white"/>
<path fill-rule="evenodd" clip-rule="evenodd" d="M115.783 39.2596L118.02 37.9671C118.537 39.3057 119.554 39.9747 121.069 39.9747C121.801 39.9747 122.335 39.8433 122.674 39.5804C123.012 39.318 123.181 38.9879 123.181 38.5906C123.181 38.126 122.973 37.7658 122.558 37.5087C122.143 37.252 121.401 36.9742 120.331 36.6746C119.741 36.4976 119.24 36.3215 118.83 36.1476C118.419 35.9732 118.006 35.7383 117.592 35.4418C117.178 35.1453 116.865 34.7727 116.652 34.3236C116.439 33.8745 116.332 33.3506 116.332 32.7514C116.332 31.5487 116.757 30.5916 117.609 29.8792C118.461 29.1668 119.487 28.8106 120.69 28.8106C121.761 28.8106 122.703 29.0734 123.516 29.5991C124.328 30.1248 124.962 30.8549 125.417 31.789L123.218 33.0448C122.689 31.9204 121.847 31.358 120.69 31.358C120.15 31.358 119.724 31.4801 119.413 31.7248C119.103 31.9691 118.948 32.2868 118.948 32.678C118.948 33.0935 119.121 33.4284 119.469 33.682C119.816 33.9355 120.481 34.2121 121.465 34.5117C121.871 34.6338 122.177 34.7298 122.384 34.8002C122.59 34.8705 122.873 34.9772 123.233 35.121C123.594 35.2648 123.871 35.3989 124.065 35.5245C124.259 35.6498 124.482 35.8192 124.734 36.033C124.987 36.2471 125.179 36.4671 125.312 36.6932C125.444 36.9193 125.558 37.1914 125.653 37.5091C125.748 37.8268 125.796 38.1751 125.796 38.5539C125.796 39.7725 125.352 40.7384 124.462 41.4522C123.573 42.1655 122.417 42.5221 120.995 42.5221C119.683 42.5221 118.579 42.2296 117.683 41.6447C116.786 41.0593 116.153 40.2645 115.783 39.2596Z" fill="white"/>
<path d="M30.1451 7.51572C27.6052 6.67406 24.1481 7.86641 22.737 8.56778L17.4456 5.41159C16.9164 5.76227 16.8106 5.7272 20.6204 2.78141C24.4303 -0.164386 31.027 -0.199455 33.8491 0.151235V9.09383C33.6728 8.91848 32.685 8.35737 30.1451 7.51572Z" fill="white"/>
</svg>
