<svg width="21" height="20" viewBox="0 0 21 20" fill="none" xmlns="http://www.w3.org/2000/svg">
<path fill-rule="evenodd" clip-rule="evenodd" d="M4.28661 2.02695e-07H4.33839C4.8697 -6.1154e-06 17.3062 -1.13603e-05 17.663 0.0243383C18.0324 0.049542 18.371 0.103321 18.6959 0.237877C19.4616 0.555046 20.07 1.1634 20.3871 1.92911C20.5217 2.25396 20.5755 2.59256 20.6007 2.96195C20.625 3.31883 20.625 3.75529 20.625 4.2866V4.3384C20.625 4.86971 20.625 16.3062 20.6007 16.663C20.5755 17.0324 20.5217 17.371 20.3871 17.6959C20.07 18.4616 19.4616 19.07 18.6959 19.3871C18.371 19.5217 18.0324 19.5755 17.663 19.6007C17.3062 19.625 4.86971 19.625 4.3384 19.625H4.2866C3.75529 19.625 3.31883 19.625 2.96195 19.6007C2.59256 19.5755 2.25396 19.5217 1.92911 19.3871C1.1634 19.07 0.555046 18.4616 0.237877 17.6959C0.103321 17.371 0.049542 17.0324 0.0243383 16.663C-1.13603e-05 16.3062 -6.1154e-06 4.8697 2.02695e-07 4.33839V4.28661C-6.1154e-06 3.7553 -1.13603e-05 3.31883 0.0243383 2.96195C0.049542 2.59256 0.103321 2.25396 0.237877 1.92911C0.555046 1.1634 1.1634 0.555046 1.92911 0.237877C2.25396 0.103321 2.59256 0.049542 2.96195 0.0243383C3.31883 -1.13603e-05 3.7553 -6.1154e-06 4.28661 2.02695e-07ZM3.06406 1.52086C2.77104 1.54085 2.61475 1.57747 2.50314 1.6237C2.10497 1.78862 1.78862 2.10497 1.6237 2.50314C1.57747 2.61475 1.54085 2.77104 1.52086 3.06406C1.50041 3.36382 1.5 3.74893 1.5 4.3125C1.5 4.87607 1.50041 16.2612 1.52086 16.5609C1.54085 16.854 1.57747 17.0103 1.6237 17.1219C1.78862 17.52 2.10497 17.8364 2.50314 18.0013C2.61475 18.0475 2.77104 18.0841 3.06406 18.1041C3.36382 18.1246 3.74893 18.125 4.3125 18.125C4.87607 18.125 17.2612 18.1246 17.5609 18.1041C17.854 18.0841 18.0103 18.0475 18.1219 18.0013C18.52 17.8364 18.8364 17.52 19.0013 17.1219C19.0475 17.0103 19.0841 16.854 19.1041 16.5609C19.1246 16.2612 19.125 4.87607 19.125 4.3125C19.125 3.74893 19.1246 3.36382 19.1041 3.06406C19.0841 2.77104 19.0475 2.61475 19.0013 2.50314C18.8364 2.10497 18.52 1.78862 18.1219 1.6237C18.0103 1.57747 17.854 1.54085 17.5609 1.52086C17.2612 1.50041 4.87607 1.5 4.3125 1.5C3.74893 1.5 3.36382 1.50041 3.06406 1.52086Z" fill="#FAFAFA"/>
<path d="M20 9L20 11L1 11L1 9L20 9Z" fill="#FAFAFA"/>
<rect x="9" y="0.5" width="2" height="19" fill="#FAFAFA"/>
</svg>
