<svg width="14" height="14" viewBox="0 0 14 14" fill="none" xmlns="http://www.w3.org/2000/svg">
<path d="M13.7131 6.11971C13.5715 5.92419 13.3848 5.76572 13.1689 5.65776C12.953 5.5498 12.7142 5.49553 12.4728 5.49957H12.3128V4.49935C12.3128 4.29977 12.273 4.10219 12.1958 3.91818C12.1185 3.73416 12.0053 3.56742 11.8628 3.4277C11.7203 3.28798 11.5513 3.1781 11.3658 3.10449C11.1803 3.03088 10.982 2.99502 10.7824 2.99901H7.5417C7.42044 2.99829 7.30275 2.95789 7.20662 2.88398L5.20617 1.32363C4.93238 1.11281 4.59652 0.998514 4.25096 0.998561H1.53035C1.33081 0.994569 1.13248 1.03043 0.946972 1.10404C0.761465 1.17765 0.592509 1.28753 0.449996 1.42725C0.307483 1.56697 0.194278 1.73371 0.117009 1.91773C0.0397407 2.10174 -3.81576e-05 2.29932 1.76198e-06 2.4989V11.5009C-0.000432688 11.7778 0.0794831 12.0488 0.230054 12.2811C0.368437 12.5011 0.560233 12.6825 0.787585 12.8084C1.01494 12.9343 1.27045 13.0007 1.53035 13.0013H11.0325C11.359 13.0094 11.6793 12.9108 11.9447 12.7203C12.21 12.5298 12.406 12.258 12.5028 11.946L13.9331 7.44501C14.002 7.2222 14.0179 6.98641 13.9797 6.75636C13.9415 6.5263 13.8502 6.30832 13.7131 6.11971ZM1.00023 2.4989C1.0001 2.43062 1.01396 2.36304 1.04095 2.30032C1.06794 2.2376 1.10749 2.18107 1.15715 2.13422C1.20682 2.08736 1.26555 2.05118 1.32973 2.02788C1.39392 2.00459 1.46219 1.99469 1.53035 1.99879H4.25096C4.37387 1.99878 4.49337 2.0392 4.59103 2.11381L6.59148 3.67416C6.86338 3.88495 7.19767 3.99931 7.5417 3.99924H10.7824C10.8506 3.99514 10.9189 4.00504 10.983 4.02833C11.0472 4.05163 11.106 4.08781 11.1556 4.13467C11.2053 4.18152 11.2448 4.23805 11.2718 4.30077C11.2988 4.36349 11.3127 4.43107 11.3125 4.49935V5.49957H3.31075C2.98675 5.49472 2.66988 5.59489 2.40755 5.7851C2.14521 5.97532 1.95151 6.24535 1.85542 6.55481L1.00023 9.27042V2.4989ZM13.0029 7.14494L11.5726 11.646C11.5405 11.7523 11.4739 11.8449 11.3834 11.9092C11.2928 11.9735 11.1834 12.0058 11.0725 12.001H1.57035C1.45756 12.0008 1.34757 11.9659 1.25528 11.901L2.85564 6.85488C2.88775 6.74857 2.95433 6.65596 3.04488 6.59167C3.13543 6.52738 3.2448 6.49506 3.35576 6.4998H12.4728C12.5571 6.49921 12.6403 6.51836 12.7159 6.5557C12.7914 6.59304 12.8572 6.64754 12.9079 6.71485C12.9555 6.77453 12.9888 6.84432 13.0053 6.91887C13.0218 6.99342 13.021 7.07076 13.0029 7.14494Z" fill="white"/>
</svg>
