<svg width="40" height="40" viewBox="0 0 40 40" fill="none" xmlns="http://www.w3.org/2000/svg">
<circle cx="20" cy="20" r="20" fill="#FAFAFA"/>
<path d="M25 20.5C25 21.875 26.125 23 27.5 23C28.875 23 30 21.875 30 20.5C30 19.125 28.875 18 27.5 18C26.125 18 25 19.125 25 20.5ZM22.5 20.5C22.5 19.125 21.375 18 20 18C18.625 18 17.5 19.125 17.5 20.5C17.5 21.875 18.625 23 20 23C21.375 23 22.5 21.875 22.5 20.5ZM15 20.5C15 19.125 13.875 18 12.5 18C11.125 18 10 19.125 10 20.5C10 21.875 11.125 23 12.5 23C13.875 23 15 21.875 15 20.5Z" fill="#0F1621"/>
</svg>
