<svg width="23" height="20" viewBox="0 0 23 20" fill="none" xmlns="http://www.w3.org/2000/svg">
<path d="M5.36893 4.5238C5.36893 6.10833 6.65345 7.39285 8.23798 7.39285V8.89285C5.82502 8.89285 3.86893 6.93676 3.86893 4.5238H5.36893ZM8.23798 7.39285C9.82251 7.39285 11.107 6.10833 11.107 4.5238H12.607C12.607 6.93676 10.6509 8.89285 8.23798 8.89285V7.39285ZM11.107 4.5238C11.107 2.93927 9.82251 1.65475 8.23798 1.65475V0.154755C10.6509 0.154755 12.607 2.11084 12.607 4.5238H11.107ZM8.23798 1.65475C6.65345 1.65475 5.36893 2.93927 5.36893 4.5238H3.86893C3.86893 2.11084 5.82502 0.154755 8.23798 0.154755V1.65475ZM11.857 12.5119H4.61893V11.0119H11.857V12.5119ZM4.61893 18.25H11.857V19.75H4.61893V18.25ZM11.857 18.25C13.4416 18.25 14.7261 16.9655 14.7261 15.3809H16.2261C16.2261 17.7939 14.27 19.75 11.857 19.75V18.25ZM1.74988 15.3809C1.74988 16.9655 3.0344 18.25 4.61893 18.25V19.75C2.20597 19.75 0.249885 17.7939 0.249885 15.3809H1.74988ZM4.61893 12.5119C3.0344 12.5119 1.74988 13.7964 1.74988 15.3809H0.249885C0.249885 12.968 2.20597 11.0119 4.61893 11.0119V12.5119ZM11.857 11.0119C14.27 11.0119 16.2261 12.968 16.2261 15.3809H14.7261C14.7261 13.7964 13.4416 12.5119 11.857 12.5119V11.0119Z" fill="#FAFAFA"/>
<path d="M13.3624 7.70695C13.5527 7.40128 13.9097 7.23809 14.2697 7.23809C15.7688 7.23809 16.984 6.02287 16.984 4.52381C16.984 3.02475 15.7688 1.80952 14.2697 1.80952C13.9097 1.80952 13.5527 1.64634 13.3624 1.34067C13.354 1.32715 13.3455 1.31367 13.337 1.30022C13.0202 0.800181 13.1807 0.0921658 13.7691 0.027388C13.9335 0.00929009 14.1005 0 14.2697 0C16.7682 0 18.7935 2.02538 18.7935 4.52381C18.7935 7.02224 16.7682 9.04762 14.2697 9.04762C14.1005 9.04762 13.9335 9.03833 13.7691 9.02023C13.1807 8.95545 13.0202 8.24744 13.337 7.7474C13.3455 7.73395 13.354 7.72047 13.3624 7.70695Z" fill="#FAFAFA"/>
<path d="M17.0343 17.2711C17.1713 17.0427 17.413 16.8889 17.6794 16.8889H17.8888C19.3878 16.8889 20.6031 15.6737 20.6031 14.1746C20.6031 12.6755 19.3878 11.4603 17.8888 11.4603H17.6794C17.413 11.4603 17.1713 11.3065 17.0343 11.0781C16.7001 10.5204 17.0628 9.65079 17.713 9.65079H17.8888C20.3872 9.65079 22.4126 11.6762 22.4126 14.1746C22.4126 16.673 20.3872 18.6984 17.8888 18.6984H17.713C17.0628 18.6984 16.7001 17.8288 17.0343 17.2711Z" fill="#FAFAFA"/>
</svg>
