<svg width="40" height="40" viewBox="0 0 40 40" fill="none" xmlns="http://www.w3.org/2000/svg">
<circle cx="20" cy="20" r="20" fill="#FAFAFA"/>
<path fill-rule="evenodd" clip-rule="evenodd" d="M25.0309 15.2542C23.9508 13.3086 21.9642 11.9406 19.6344 11.7141C19.2948 11.6811 18.901 11.6816 18.2195 11.6825L18.171 11.6825C18.1638 11.6826 18.1566 11.6826 18.1494 11.6826C18.068 11.6826 17.9835 11.6826 17.9055 11.6904C17.1618 11.7646 16.5741 12.3538 16.5017 13.0977C16.4942 13.1757 16.4943 13.2603 16.4945 13.3417C16.4945 13.3489 16.4945 13.3561 16.4945 13.3632L16.5026 19.7417L10.0122 19.7499C9.64136 19.7504 9.34113 20.0513 9.3416 20.4222C9.34207 20.793 9.64305 21.0932 10.0139 21.0927L16.5043 21.0846L16.5123 27.4631C16.5123 27.4702 16.5123 27.4774 16.5123 27.4846C16.5124 27.566 16.5124 27.6506 16.5202 27.7285C16.5944 28.4722 17.1836 29.06 17.9275 29.1323C18.0055 29.1399 18.0901 29.1397 18.1715 29.1395C18.1787 29.1395 18.1858 29.1395 18.193 29.1395L18.2415 29.1394C18.923 29.1386 19.3168 29.1381 19.6563 29.1042C21.986 28.8718 23.9695 27.4983 25.0445 25.5493L25.2381 25.5491C28.0811 25.5455 30.3828 23.238 30.3792 20.395C30.3756 17.5521 28.0681 15.2504 25.2252 15.254L25.0309 15.2542ZM25.6058 16.615C25.7332 17.0379 25.8216 17.478 25.8668 17.9308C25.9007 18.2703 25.9012 18.6641 25.902 19.3457L25.9047 21.4569C25.9055 22.1384 25.906 22.5323 25.873 22.8718C25.829 23.3243 25.7419 23.7642 25.6157 24.1871C27.5387 23.9943 29.0389 22.37 29.0364 20.3967C29.0339 18.4233 27.5294 16.8027 25.6058 16.615ZM24.0159 16.2148C23.1905 14.4816 21.5035 13.245 19.5045 13.0507C19.2391 13.0249 18.9161 13.0245 18.1727 13.0254C18.1184 13.0255 18.0862 13.0255 18.0618 13.026C18.0463 13.0263 18.0379 13.0267 18.0379 13.0267C17.9324 13.0377 17.8491 13.1212 17.8384 13.2268C17.8384 13.2268 17.8379 13.2351 17.8377 13.2506C17.8373 13.275 17.8373 13.3073 17.8374 13.3615L17.8463 20.4114L17.8552 27.4614C17.8552 27.5156 17.8553 27.5479 17.8557 27.5723C17.856 27.5868 17.8563 27.5936 17.8565 27.5957C17.8671 27.702 17.9512 27.7854 18.0574 27.7957C18.0536 27.7954 18.0573 27.796 18.0804 27.7964C18.1048 27.7967 18.1371 27.7967 18.1913 27.7967C18.9347 27.7957 19.2578 27.7945 19.523 27.768C21.525 27.5683 23.2112 26.3235 24.0306 24.5837C24.2978 24.0164 24.4729 23.3963 24.5365 22.7419C24.5623 22.4766 24.5627 22.1535 24.5617 21.4101L24.5592 19.3958C24.5583 18.6524 24.557 18.3294 24.5306 18.0641C24.465 17.4065 24.2869 16.7838 24.0159 16.2148Z" fill="#231F20" stroke="#231F20" stroke-linecap="round"/>
</svg>
