<svg width="16" height="15" viewBox="0 0 16 15" fill="none" xmlns="http://www.w3.org/2000/svg">
<path d="M7.11651 12.8287C8.52624 12.8284 9.89535 12.352 11.0058 11.4753L14.4973 15L15.6203 13.8663L12.1289 10.3416C12.9978 9.22038 13.47 7.83791 13.4703 6.41437C13.4703 2.87765 10.6198 0 7.11651 0C3.61317 0 0.762695 2.87765 0.762695 6.41437C0.762695 9.95109 3.61317 12.8287 7.11651 12.8287ZM7.11651 1.60359C9.7446 1.60359 11.8819 3.76123 11.8819 6.41437C11.8819 9.06751 9.7446 11.2251 7.11651 11.2251C4.48841 11.2251 2.35115 9.06751 2.35115 6.41437C2.35115 3.76123 4.48841 1.60359 7.11651 1.60359Z" fill="#757575"/>
</svg>
