<svg width="134" height="134" viewBox="0 0 134 134" fill="none" xmlns="http://www.w3.org/2000/svg">
<path d="M2.53287 54.9353L52.3173 81.6862L79.0765 131.455C79.9246 133.01 81.5374 134 83.3197 134H83.659C85.5536 133.859 87.1665 132.642 87.8451 130.861L133.7 6.46526C134.351 4.71211 133.925 2.73206 132.597 1.40277C131.267 0.0735733 129.288 -0.350374 127.533 0.300482L3.15304 46.1683C1.3707 46.8192 0.154573 48.4588 0.0134979 50.3531C-0.128659 52.2483 0.861658 54.0288 2.53055 54.934L2.53287 54.9353ZM82.4711 117.487L61.7937 78.9989L117.095 23.7148L82.4711 117.487ZM110.277 16.9002L55.003 72.1843L16.4758 51.5134L110.277 16.9002Z" fill="white"/>
</svg>
