<svg width="40" height="40" viewBox="0 0 40 40" fill="none" xmlns="http://www.w3.org/2000/svg">
<circle cx="20" cy="20" r="20" fill="#FAFAFA"/>
<mask id="mask0_76_578" style="mask-type:alpha" maskUnits="userSpaceOnUse" x="10" y="11" width="20" height="18">
<path fill-rule="evenodd" clip-rule="evenodd" d="M27.3335 21.8333C27.3335 22.3384 26.9228 22.75 26.4168 22.75H20.0799H19.9204H13.5835C13.0775 22.75 12.6668 22.3384 12.6668 21.8333V14.5C12.6668 13.9949 13.0775 13.5833 13.5835 13.5833H26.4168C26.9228 13.5833 27.3335 13.9949 27.3335 14.5V21.8333ZM26.4168 11.75H13.5835C12.0673 11.75 10.8335 12.9838 10.8335 14.5V21.8333C10.8335 23.3495 12.0673 24.5833 13.5835 24.5833H19.0835V26.4167H15.4168C14.9127 26.4167 14.5002 26.8292 14.5002 27.3333C14.5002 27.8375 14.9127 28.25 15.4168 28.25H24.5835C25.0877 28.25 25.5002 27.8375 25.5002 27.3333C25.5002 26.8292 25.0877 26.4167 24.5835 26.4167H20.9168V24.5833H26.4168C27.933 24.5833 29.1668 23.3495 29.1668 21.8333V14.5C29.1668 12.9838 27.933 11.75 26.4168 11.75V11.75Z" fill="white"/>
</mask>
<g mask="url(#mask0_76_578)">
<rect x="9" y="9" width="22" height="22" fill="#0D1C2E"/>
</g>
</svg>
