<svg width="40" height="40" viewBox="0 0 40 40" fill="none" xmlns="http://www.w3.org/2000/svg">
<circle cx="20" cy="20" r="20" fill="#FAFAFA"/>
<path fill-rule="evenodd" clip-rule="evenodd" d="M17.8922 13.9383C17.8922 12.8523 18.7754 11.9692 19.8614 11.9692C20.9473 11.9692 21.8305 12.8523 21.8305 13.9383V18.8612C21.8305 18.8933 21.8262 18.9239 21.822 18.9544C21.8191 18.9745 21.8163 18.9945 21.8148 19.0148L23.3852 20.5853C23.6421 20.0624 23.7997 19.4825 23.7997 18.8612V13.9383C23.7997 11.7663 22.0333 10 19.8614 10C17.9434 10 16.3464 11.3794 15.9978 13.1979L17.8922 15.0923V13.9383ZM26.7537 18.8612C26.7537 18.3178 26.3136 17.8767 25.7691 17.8767C25.2246 17.8767 24.7845 18.3178 24.7845 18.8612C24.7845 19.7562 24.5265 20.5843 24.1071 21.3069L25.5476 22.7474C26.3077 21.6407 26.7537 20.3027 26.7537 18.8612ZM19.9457 22.7915C19.9183 22.7955 19.8906 22.7996 19.8617 22.7996C17.6897 22.7996 15.9234 21.0333 15.9234 18.8613V18.6919L20.0153 22.7838C19.9919 22.7847 19.9689 22.7881 19.9457 22.7915L19.9457 22.7915ZM28.4343 27.0264L12.6809 11.2731C12.296 10.8881 11.6737 10.8881 11.2887 11.2731C10.9038 11.658 10.9038 12.2803 11.2887 12.6653L27.0421 28.4186C27.2341 28.6106 27.4861 28.7071 27.7382 28.7071C27.9902 28.7071 28.2423 28.6106 28.4343 28.4186C28.8192 28.0336 28.8192 27.4114 28.4343 27.0264ZM20.8462 27.7225H22.8154C23.3569 27.7225 23.8 28.1656 23.8 28.7071C23.8 29.2486 23.3569 29.6917 22.8154 29.6917H16.9079C16.3664 29.6917 15.9233 29.2486 15.9233 28.7071C15.9233 28.1656 16.3664 27.7225 16.9079 27.7225H18.8771V25.6746C15.5423 25.1941 12.9696 22.327 12.9696 18.8612C12.9696 18.3178 13.4097 17.8767 13.9542 17.8767C14.4986 17.8767 14.9387 18.3178 14.9387 18.8612C14.9387 21.5757 17.1472 23.7842 19.8617 23.7842C20.2181 23.7842 20.5646 23.7418 20.9004 23.669L22.4688 25.2374C21.9559 25.4481 21.4104 25.5919 20.8462 25.6736V27.7225Z" fill="#EF2111"/>
</svg>
