<svg width="40" height="40" viewBox="0 0 40 40" fill="none" xmlns="http://www.w3.org/2000/svg">
<circle cx="20" cy="20" r="20" fill="#FAFAFA"/>
<path fill-rule="evenodd" clip-rule="evenodd" d="M20 11C18.897 11 18 11.897 18 13V18C18 19.103 18.897 20 20 20C21.103 20 22 19.103 22 18V13C22 11.897 21.103 11 20 11ZM24 18C24 20.206 22.206 22 20 22C17.794 22 16 20.206 16 18V13C16 10.794 17.794 9 20 9C22.206 9 24 10.794 24 13V18ZM26 17C26.553 17 27 17.448 27 18C27 21.52 24.387 24.432 21 24.92V27H23.105C23.598 27 24 27.402 24 27.895V28.105C24 28.598 23.598 29 23.105 29H16.895C16.402 29 16 28.598 16 28.105V27.895C16 27.402 16.402 27 16.895 27H19V24.92C15.613 24.432 13 21.52 13 18C13 17.448 13.447 17 14 17C14.553 17 15 17.448 15 18C15 20.757 17.243 23 20 23C22.757 23 25 20.757 25 18C25 17.448 25.447 17 26 17Z" fill="#0F1621"/>
<mask id="mask0_61_575" style="mask-type:alpha" maskUnits="userSpaceOnUse" x="18" y="11" width="4" height="9">
<path fill-rule="evenodd" clip-rule="evenodd" d="M18 13C18 11.897 18.897 11 20 11C21.103 11 22 11.897 22 13V18C22 19.103 21.103 20 20 20C18.897 20 18 19.103 18 18V13Z" fill="white"/>
</mask>
<g mask="url(#mask0_61_575)">
</g>
</svg>
