<svg width="42" height="40" viewBox="0 0 42 40" fill="none" xmlns="http://www.w3.org/2000/svg">
<path d="M20 40C31.0457 40 40 31.0457 40 20C40 8.9543 31.0457 0 20 0C8.9543 0 0 8.9543 0 20C0 31.0457 8.9543 40 20 40Z" fill="#FAFAFA"/>
<rect x="16" y="16" width="8" height="8" rx="1" fill="#EF2111"/>
<path d="M20 10C14.48 10 10 14.48 10 20C10 25.52 14.48 30 20 30C25.52 30 30 25.52 30 20C30 14.48 25.52 10 20 10ZM20 28C15.58 28 12 24.42 12 20C12 15.58 15.58 12 20 12C24.42 12 28 15.58 28 20C28 24.42 24.42 28 20 28Z" fill="#EF2111"/>
</svg>
