<svg width="14" height="14" viewBox="0 0 14 14" fill="none" xmlns="http://www.w3.org/2000/svg">
<path d="M10.5 1.16667C11.7868 1.16667 12.8333 2.21317 12.8333 3.5V10.5C12.8333 11.7868 11.7868 12.8333 10.5 12.8333H3.5C2.21317 12.8333 1.16667 11.7868 1.16667 10.5V3.5C1.16667 2.21317 2.21317 1.16667 3.5 1.16667H10.5ZM10.5 0H3.5C1.56683 0 0 1.56683 0 3.5V10.5C0 12.4332 1.56683 14 3.5 14H10.5C12.4332 14 14 12.4332 14 10.5V3.5C14 1.56683 12.4332 0 10.5 0Z" fill="white"/>
<path d="M9.91667 7.58334H4.08333C3.76133 7.58334 3.5 7.32201 3.5 7.00001C3.5 6.67801 3.76133 6.41667 4.08333 6.41667H9.91667C10.2392 6.41667 10.5 6.67801 10.5 7.00001C10.5 7.32201 10.2392 7.58334 9.91667 7.58334Z" fill="white"/>
<path d="M9.91667 4.66667H4.08333C3.76133 4.66667 3.5 4.40533 3.5 4.08333C3.5 3.76133 3.76133 3.5 4.08333 3.5H9.91667C10.2392 3.5 10.5 3.76133 10.5 4.08333C10.5 4.40533 10.2392 4.66667 9.91667 4.66667Z" fill="white"/>
<path d="M9.91667 10.5H4.08333C3.76133 10.5 3.5 10.2393 3.5 9.91668C3.5 9.59409 3.76133 9.33334 4.08333 9.33334H9.91667C10.2392 9.33334 10.5 9.59409 10.5 9.91668C10.5 10.2393 10.2392 10.5 9.91667 10.5Z" fill="white"/>
</svg>
