<svg width="21" height="20" viewBox="0 0 21 20" fill="none" xmlns="http://www.w3.org/2000/svg">
<path fill-rule="evenodd" clip-rule="evenodd" d="M4.28661 11H4.33839C4.8697 11 5.30617 11 5.66305 11.0243C6.03244 11.0495 6.37104 11.1033 6.69589 11.2379C7.4616 11.555 8.06996 12.1634 8.38712 12.9291C8.52168 13.254 8.57546 13.5926 8.60066 13.962C8.62501 14.3188 8.62501 14.7553 8.625 15.2866V15.3384C8.62501 15.8697 8.62501 16.3062 8.60066 16.663C8.57546 17.0324 8.52168 17.371 8.38712 17.6959C8.06996 18.4616 7.4616 19.07 6.69589 19.3871C6.37104 19.5217 6.03244 19.5755 5.66305 19.6007C5.30617 19.625 4.86971 19.625 4.3384 19.625H4.2866C3.75529 19.625 3.31883 19.625 2.96195 19.6007C2.59256 19.5755 2.25396 19.5217 1.92911 19.3871C1.1634 19.07 0.555046 18.4616 0.237877 17.6959C0.103321 17.371 0.049542 17.0324 0.0243383 16.663C-1.13603e-05 16.3062 -6.1154e-06 15.8697 2.02695e-07 15.3384V15.2866C-6.1154e-06 14.7553 -1.13603e-05 14.3188 0.0243383 13.962C0.049542 13.5926 0.103321 13.254 0.237877 12.9291C0.555046 12.1634 1.1634 11.555 1.92911 11.2379C2.25396 11.1033 2.59256 11.0495 2.96195 11.0243C3.31883 11 3.7553 11 4.28661 11ZM3.06406 12.5209C2.77104 12.5409 2.61475 12.5775 2.50314 12.6237C2.10497 12.7886 1.78862 13.105 1.6237 13.5031C1.57747 13.6147 1.54085 13.771 1.52086 14.0641C1.50041 14.3638 1.5 14.7489 1.5 15.3125C1.5 15.8761 1.50041 16.2612 1.52086 16.5609C1.54085 16.854 1.57747 17.0103 1.6237 17.1219C1.78862 17.52 2.10497 17.8364 2.50314 18.0013C2.61475 18.0475 2.77104 18.0841 3.06406 18.1041C3.36382 18.1246 3.74893 18.125 4.3125 18.125C4.87607 18.125 5.26118 18.1246 5.56094 18.1041C5.85397 18.0841 6.01025 18.0475 6.12186 18.0013C6.52003 17.8364 6.83638 17.52 7.00131 17.1219C7.04754 17.0103 7.08415 16.854 7.10414 16.5609C7.12459 16.2612 7.125 15.8761 7.125 15.3125C7.125 14.7489 7.12459 14.3638 7.10414 14.0641C7.08415 13.771 7.04754 13.6147 7.00131 13.5031C6.83638 13.105 6.52003 12.7886 6.12186 12.6237C6.01025 12.5775 5.85397 12.5409 5.56094 12.5209C5.26118 12.5004 4.87607 12.5 4.3125 12.5C3.74893 12.5 3.36382 12.5004 3.06406 12.5209Z" fill="#FAFAFA"/>
<path fill-rule="evenodd" clip-rule="evenodd" d="M16.2866 11H16.3384C16.8697 11 17.3062 11 17.663 11.0243C18.0324 11.0495 18.371 11.1033 18.6959 11.2379C19.4616 11.555 20.07 12.1634 20.3871 12.9291C20.5217 13.254 20.5755 13.5926 20.6007 13.962C20.625 14.3188 20.625 14.7553 20.625 15.2866V15.3384C20.625 15.8697 20.625 16.3062 20.6007 16.663C20.5755 17.0324 20.5217 17.371 20.3871 17.6959C20.07 18.4616 19.4616 19.07 18.6959 19.3871C18.371 19.5217 18.0324 19.5755 17.663 19.6007C17.3062 19.625 16.8697 19.625 16.3384 19.625H16.2866C15.7553 19.625 15.3188 19.625 14.962 19.6007C14.5926 19.5755 14.254 19.5217 13.9291 19.3871C13.1634 19.07 12.555 18.4616 12.2379 17.6959C12.1033 17.371 12.0495 17.0324 12.0243 16.663C12 16.3062 12 15.8697 12 15.3384V15.2866C12 14.7553 12 14.3188 12.0243 13.962C12.0495 13.5926 12.1033 13.254 12.2379 12.9291C12.555 12.1634 13.1634 11.555 13.9291 11.2379C14.254 11.1033 14.5926 11.0495 14.962 11.0243C15.3188 11 15.7553 11 16.2866 11ZM15.0641 12.5209C14.771 12.5409 14.6147 12.5775 14.5031 12.6237C14.105 12.7886 13.7886 13.105 13.6237 13.5031C13.5775 13.6147 13.5409 13.771 13.5209 14.0641C13.5004 14.3638 13.5 14.7489 13.5 15.3125C13.5 15.8761 13.5004 16.2612 13.5209 16.5609C13.5409 16.854 13.5775 17.0103 13.6237 17.1219C13.7886 17.52 14.105 17.8364 14.5031 18.0013C14.6147 18.0475 14.771 18.0841 15.0641 18.1041C15.3638 18.1246 15.7489 18.125 16.3125 18.125C16.8761 18.125 17.2612 18.1246 17.5609 18.1041C17.854 18.0841 18.0103 18.0475 18.1219 18.0013C18.52 17.8364 18.8364 17.52 19.0013 17.1219C19.0475 17.0103 19.0841 16.854 19.1041 16.5609C19.1246 16.2612 19.125 15.8761 19.125 15.3125C19.125 14.7489 19.1246 14.3638 19.1041 14.0641C19.0841 13.771 19.0475 13.6147 19.0013 13.5031C18.8364 13.105 18.52 12.7886 18.1219 12.6237C18.0103 12.5775 17.854 12.5409 17.5609 12.5209C17.2612 12.5004 16.8761 12.5 16.3125 12.5C15.7489 12.5 15.3638 12.5004 15.0641 12.5209Z" fill="#FAFAFA"/>
<path fill-rule="evenodd" clip-rule="evenodd" d="M4.28661 0.25H4.33839C4.8697 0.249994 17.3062 0.249989 17.663 0.274338C18.0324 0.299542 18.371 0.353321 18.6959 0.487877C19.4616 0.805046 20.07 1.4134 20.3871 2.17911C20.5217 2.50396 20.5755 2.84256 20.6007 3.21195C20.625 3.56883 20.625 4.00529 20.625 4.5366V4.5884C20.625 5.11971 20.625 5.55617 20.6007 5.91305C20.5755 6.28244 20.5217 6.62104 20.3871 6.94589C20.07 7.7116 19.4616 8.31996 18.6959 8.63712C18.371 8.77168 18.0324 8.82546 17.663 8.85066C17.3062 8.87501 4.86971 8.87501 4.3384 8.875H4.2866C3.75529 8.87501 3.31883 8.87501 2.96195 8.85066C2.59256 8.82546 2.25396 8.77168 1.92911 8.63712C1.1634 8.31996 0.555046 7.7116 0.237877 6.94589C0.103321 6.62104 0.049542 6.28244 0.0243383 5.91305C-1.13603e-05 5.55617 -6.1154e-06 5.1197 2.02695e-07 4.58839V4.53661C-6.1154e-06 4.0053 -1.13603e-05 3.56883 0.0243383 3.21195C0.049542 2.84256 0.103321 2.50396 0.237877 2.17911C0.555046 1.4134 1.1634 0.805046 1.92911 0.487877C2.25396 0.353321 2.59256 0.299542 2.96195 0.274338C3.31883 0.249989 3.7553 0.249994 4.28661 0.25ZM3.06406 1.77086C2.77104 1.79085 2.61475 1.82747 2.50314 1.8737C2.10497 2.03862 1.78862 2.35497 1.6237 2.75314C1.57747 2.86475 1.54085 3.02104 1.52086 3.31406C1.50041 3.61382 1.5 3.99893 1.5 4.5625C1.5 5.12607 1.50041 5.51118 1.52086 5.81094C1.54085 6.10397 1.57747 6.26025 1.6237 6.37186C1.78862 6.77003 2.10497 7.08638 2.50314 7.25131C2.61475 7.29754 2.77104 7.33415 3.06406 7.35414C3.36382 7.37459 3.74893 7.375 4.3125 7.375C4.87607 7.375 17.2612 7.37459 17.5609 7.35414C17.854 7.33415 18.0103 7.29754 18.1219 7.25131C18.52 7.08638 18.8364 6.77003 19.0013 6.37186C19.0475 6.26025 19.0841 6.10397 19.1041 5.81094C19.1246 5.51118 19.125 5.12607 19.125 4.5625C19.125 3.99893 19.1246 3.61382 19.1041 3.31406C19.0841 3.02104 19.0475 2.86475 19.0013 2.75314C18.8364 2.35497 18.52 2.03862 18.1219 1.8737C18.0103 1.82747 17.854 1.79085 17.5609 1.77086C17.2612 1.75041 4.87607 1.75 4.3125 1.75C3.74893 1.75 3.36382 1.75041 3.06406 1.77086Z" fill="#FAFAFA"/>
</svg>
