<svg width="19" height="19" viewBox="0 0 19 19" fill="none" xmlns="http://www.w3.org/2000/svg">
<path d="M9.32031 0.0300293C4.35985 0.0300293 0.320312 4.06956 0.320312 9.03003C0.320312 13.9905 4.35985 18.03 9.32031 18.03C14.2808 18.03 18.3203 13.9905 18.3203 9.03003C18.3203 4.06956 14.2808 0.0300293 9.32031 0.0300293ZM13.5064 7.39747L8.4831 12.4207C8.31566 12.5882 8.10636 12.6719 7.89706 12.6719C7.68775 12.6719 7.47845 12.5882 7.31101 12.4207L4.71566 9.86724C4.38078 9.53235 4.38078 9.0091 4.71566 8.67421C5.05054 8.33933 5.5738 8.33933 5.90868 8.67421L7.87613 10.6417L12.3133 6.20445C12.6482 5.86956 13.1715 5.86956 13.5064 6.20445C13.8203 6.53933 13.8203 7.06259 13.5064 7.39747Z" fill="#0AC74A"/>
</svg>
