<svg width="40" height="40" viewBox="0 0 40 40" fill="none" xmlns="http://www.w3.org/2000/svg">
<circle cx="20" cy="20" r="20" transform="rotate(-90 20 20)" fill="#FAFAFA"/>
<path fill-rule="evenodd" clip-rule="evenodd" d="M15.2542 14.9691C13.3086 16.0492 11.9406 18.0358 11.7141 20.3656C11.6811 20.7052 11.6816 21.099 11.6825 21.7805L11.6825 21.829C11.6826 21.8362 11.6826 21.8434 11.6826 21.8506C11.6826 21.932 11.6826 22.0165 11.6904 22.0945C11.7646 22.8382 12.3538 23.4259 13.0977 23.4983C13.1757 23.5058 13.2603 23.5057 13.3417 23.5055C13.3489 23.5055 13.3561 23.5055 13.3632 23.5055L19.7417 23.4974L19.7499 29.9878C19.7504 30.3586 20.0513 30.6589 20.4222 30.6584C20.793 30.6579 21.0932 30.3569 21.0927 29.9861L21.0846 23.4957L27.4631 23.4877C27.4702 23.4877 27.4774 23.4877 27.4846 23.4877C27.566 23.4876 27.6506 23.4876 27.7285 23.4798C28.4722 23.4056 29.06 22.8164 29.1323 22.0725C29.1399 21.9945 29.1397 21.9099 29.1395 21.8285C29.1395 21.8213 29.1395 21.8142 29.1395 21.807L29.1394 21.7585C29.1386 21.077 29.1381 20.6832 29.1042 20.3437C28.8718 18.014 27.4983 16.0305 25.5493 14.9555L25.5491 14.7618C25.5455 11.9189 23.238 9.61719 20.395 9.62078C17.5521 9.62436 15.2504 11.9319 15.254 14.7748L15.2542 14.9691ZM16.615 14.3942C17.0379 14.2668 17.478 14.1784 17.9308 14.1332C18.2703 14.0993 18.6641 14.0988 19.3457 14.098L21.4569 14.0953C22.1384 14.0945 22.5323 14.094 22.8718 14.127C23.3243 14.171 23.7642 14.2581 24.1871 14.3843C23.9943 12.4613 22.37 10.9611 20.3967 10.9636C18.4233 10.9661 16.8027 12.4706 16.615 14.3942ZM16.2148 15.9841C14.4816 16.8095 13.245 18.4965 13.0507 20.4955C13.0249 20.7609 13.0245 21.0839 13.0254 21.8273C13.0255 21.8816 13.0255 21.9138 13.026 21.9382C13.0263 21.9537 13.0267 21.9621 13.0267 21.9621C13.0377 22.0676 13.1212 22.1509 13.2268 22.1616C13.2268 22.1616 13.2351 22.1621 13.2506 22.1623C13.275 22.1627 13.3073 22.1627 13.3615 22.1626L20.4114 22.1537L27.4614 22.1448C27.5156 22.1448 27.5479 22.1447 27.5723 22.1443C27.5868 22.144 27.5936 22.1437 27.5958 22.1435C27.702 22.1329 27.7854 22.0488 27.7957 21.9426C27.7954 21.9464 27.796 21.9427 27.7964 21.9196C27.7967 21.8952 27.7967 21.8629 27.7967 21.8087C27.7957 21.0653 27.7945 20.7422 27.768 20.477C27.5683 18.475 26.3235 16.7888 24.5837 15.9694C24.0164 15.7022 23.3963 15.5271 22.7419 15.4635C22.4766 15.4377 22.1535 15.4373 21.4101 15.4383L19.3958 15.4408C18.6524 15.4417 18.3294 15.4429 18.0641 15.4694C17.4065 15.535 16.7838 15.7131 16.2148 15.9841Z" fill="#231F20" stroke="#231F20" stroke-linecap="round"/>
</svg>
