<svg width="40" height="40" viewBox="0 0 40 40" fill="none" xmlns="http://www.w3.org/2000/svg">
<circle cx="20" cy="20" r="20" fill="#FAFAFA"/>
<path fill-rule="evenodd" clip-rule="evenodd" d="M24.5002 23.3276L22.7002 21.5276L16.7728 15.6002L14.9728 13.8002L13.4365 12.2639C13.0846 11.912 12.5158 11.912 12.1639 12.2639C11.812 12.6158 11.812 13.1846 12.1639 13.5365L12.6436 14.0162L14.2276 15.6002L22.6381 24.0107L23.9476 25.3202L26.5639 27.9365C26.7394 28.112 26.9698 28.2002 27.2002 28.2002C27.4306 28.2002 27.661 28.112 27.8365 27.9365C28.1884 27.5846 28.1884 27.0158 27.8365 26.6639L24.5002 23.3276ZM27.2006 22.44L24.6725 20.1L27.2006 17.7609V22.44ZM28.1109 15.7314C27.5475 15.4857 26.8941 15.5928 26.445 16.0068L24.5001 17.8068V16.5C24.5001 15.0114 23.2887 13.8 21.8001 13.8H16.2453L18.0453 15.6H21.8001C22.2969 15.6 22.7001 16.0041 22.7001 16.5V20.2548L26.9463 24.501C27.1191 24.5658 27.3018 24.6 27.4872 24.6C27.6978 24.6 27.9093 24.5577 28.1109 24.4695C28.659 24.2301 29.0001 23.718 29.0001 23.1339V17.067C29.0001 16.4829 28.659 15.9708 28.1109 15.7314ZM13.7 24.6003H21.8C21.8281 24.6003 21.8536 24.5932 21.8792 24.5861C21.8954 24.5816 21.9116 24.577 21.9287 24.5742L23.2985 25.944C22.8692 26.2311 22.3544 26.4003 21.8 26.4003H13.7C12.2114 26.4003 11 25.1889 11 23.7003V16.5003C11 15.7164 11.3411 15.0162 11.8766 14.5221L13.1564 15.8019C12.9449 15.9666 12.8 16.2123 12.8 16.5003V23.7003C12.8 24.1971 13.2032 24.6003 13.7 24.6003Z" fill="#EF2111"/>
</svg>
