<svg width="40" height="40" viewBox="0 0 40 40" fill="none" xmlns="http://www.w3.org/2000/svg">
<circle cx="20" cy="20" r="20" fill="#FAFAFA"/>
<path fill-rule="evenodd" clip-rule="evenodd" d="M28 22.9L25.191 20.3L28 17.701V22.9ZM23.0003 24.3C23.0003 24.852 22.5523 25.3 22.0003 25.3H13.0003C12.4483 25.3 12.0003 24.852 12.0003 24.3V16.3C12.0003 15.749 12.4483 15.3 13.0003 15.3H22.0003C22.5523 15.3 23.0003 15.749 23.0003 16.3V24.3ZM29.012 15.446C28.386 15.173 27.66 15.292 27.161 15.752L25 17.752V16.3C25 14.646 23.654 13.3 22 13.3H13C11.346 13.3 10 14.646 10 16.3V24.3C10 25.955 11.346 27.3 13 27.3H22C23.654 27.3 25 25.955 25 24.3V22.849L27.161 24.848C27.481 25.145 27.896 25.3 28.319 25.3C28.553 25.3 28.788 25.253 29.012 25.155C29.621 24.889 30 24.32 30 23.671V16.93C30 16.281 29.621 15.712 29.012 15.446V15.446Z" fill="#0F1621"/>
</svg>
