<svg width="118" height="69" viewBox="0 0 118 69" fill="none" xmlns="http://www.w3.org/2000/svg">
<mask id="mask0_31_5207" style="mask-type:alpha" maskUnits="userSpaceOnUse" x="0" y="1" width="28" height="28">
<path d="M0.0273438 1.35742H27.4183V28.6847H0.0273438V1.35742Z" fill="white"/>
</mask>
<g mask="url(#mask0_31_5207)">
<path fill-rule="evenodd" clip-rule="evenodd" d="M13.6871 21.4365C17.2957 21.448 20.1692 18.634 20.2004 15.0585C20.2311 11.4999 17.3763 8.63375 13.7669 8.59985C10.1795 8.56595 7.25983 11.4246 7.25192 14.9795C7.24363 18.5637 10.0952 21.4245 13.6871 21.4365ZM0.0273455 15.0295C0.0310866 7.44852 6.12055 1.36775 13.7187 1.35741C21.3035 1.3475 27.4017 7.42578 27.4183 15.0122C27.4345 22.5799 21.3434 28.6673 13.7374 28.6847C6.16792 28.7021 0.0236077 22.582 0.0273455 15.0295Z" fill="white"/>
</g>
<mask id="mask1_31_5207" style="mask-type:alpha" maskUnits="userSpaceOnUse" x="0" y="28" width="28" height="15">
<path d="M0 28.4783H27.3917V42.4511H0V28.4783Z" fill="white"/>
</mask>
<g mask="url(#mask1_31_5207)">
<path fill-rule="evenodd" clip-rule="evenodd" d="M0 28.4783H7.11615C7.35547 30.7557 8.04478 32.886 10.1717 34.01C11.3409 34.6277 12.7652 35.0985 14.0644 35.0758C17.5051 35.0158 19.63 32.6698 20.3097 28.5196H27.3919C27.4059 33.0278 25.7078 36.7162 22.1412 39.4277C17.5139 42.9458 12.4232 43.415 7.28983 40.7229C2.50002 38.211 0.137528 34.0551 0 28.4783Z" fill="white"/>
</g>
<path fill-rule="evenodd" clip-rule="evenodd" d="M35.8008 14.649C35.8008 11.8936 36.7622 9.56077 38.6855 7.65043C40.6085 5.74009 42.9805 4.78513 45.8013 4.78513C47.5788 4.78513 49.2013 5.18861 50.6692 5.99516C52.1367 6.80213 53.2773 7.87904 54.0908 9.22674L50.8815 11.0482C50.4303 10.2793 49.7472 9.65255 48.8319 9.16804C47.917 8.68312 46.8978 8.44045 45.7751 8.44045C43.9623 8.44045 42.4724 9.02707 41.3052 10.1995C40.1377 11.3719 39.5543 12.8552 39.5543 14.649C39.5543 16.4332 40.1464 17.9058 41.3318 19.0658C42.5164 20.2262 44.0903 20.8062 46.0535 20.8062C47.5036 20.8062 48.7039 20.4895 49.6546 19.8562C50.6048 19.2233 51.2484 18.3522 51.5841 17.2431H45.8279V13.9172H55.3647V15.3819C55.3647 18.0831 54.4955 20.2717 52.7583 21.9476C51.0207 23.6235 48.7766 24.4615 46.0269 24.4615C43.091 24.4615 40.6529 23.5119 38.7121 21.6127C36.771 19.7136 35.8008 17.3923 35.8008 14.649Z" fill="white"/>
<path fill-rule="evenodd" clip-rule="evenodd" d="M62.6329 10.1904C61.4578 11.357 60.8708 12.8391 60.8708 14.637C60.8708 16.4345 61.4578 17.9124 62.6329 19.0699C63.8075 20.2275 65.265 20.8062 67.0047 20.8062C68.7452 20.8062 70.2023 20.2275 71.3773 19.0699C72.5519 17.9124 73.1394 16.4345 73.1394 14.637C73.1394 12.8391 72.5519 11.357 71.3773 10.1904C70.2023 9.02421 68.7452 8.44089 67.0047 8.44089C65.265 8.44089 63.8075 9.02421 62.6329 10.1904ZM60.0007 21.6149C58.0782 19.7165 57.1172 17.3928 57.1172 14.6432C57.1172 11.8941 58.0782 9.5637 60.0007 7.65253C61.9228 5.74095 64.2579 4.78516 67.0047 4.78516C69.7519 4.78516 72.087 5.74095 74.0091 7.65253C75.9316 9.5637 76.893 11.8941 76.893 14.6432C76.893 17.3928 75.9316 19.7165 74.0091 21.6149C72.087 23.5132 69.7519 24.462 67.0047 24.462C64.2579 24.462 61.9228 23.5132 60.0007 21.6149Z" fill="white"/>
<path fill-rule="evenodd" clip-rule="evenodd" d="M84.1446 10.1904C82.9696 11.357 82.3825 12.8391 82.3825 14.637C82.3825 16.4345 82.9696 17.9124 84.1446 19.0699C85.3192 20.2275 86.7767 20.8062 88.5164 20.8062C90.2569 20.8062 91.714 20.2275 92.889 19.0699C94.0637 17.9124 94.6512 16.4345 94.6512 14.637C94.6512 12.8391 94.0637 11.357 92.889 10.1904C91.714 9.02421 90.2569 8.44089 88.5164 8.44089C86.7767 8.44089 85.3192 9.02421 84.1446 10.1904ZM81.5124 21.6149C79.5899 19.7165 78.6289 17.3928 78.6289 14.6432C78.6289 11.8941 79.5899 9.5637 81.5124 7.65253C83.4345 5.74095 85.7696 4.78516 88.5164 4.78516C91.2636 4.78516 93.5987 5.74095 95.5208 7.65253C97.4433 9.5637 98.4047 11.8941 98.4047 14.6432C98.4047 17.3928 97.4433 19.7165 95.5208 21.6149C93.5987 23.5132 91.2636 24.462 88.5164 24.462C85.7696 24.462 83.4345 23.5132 81.5124 21.6149Z" fill="white"/>
<path fill-rule="evenodd" clip-rule="evenodd" d="M104.759 20.5158H108.552C110.197 20.5158 111.537 19.9697 112.572 18.8774C113.606 17.7856 114.123 16.3652 114.123 14.6165C114.123 12.8686 113.608 11.4481 112.578 10.3559C111.548 9.26413 110.206 8.71761 108.552 8.71761H104.759V20.5158ZM101.006 24.0789V5.15448H108.552C111.161 5.15448 113.341 6.06356 115.092 7.88088C116.842 9.69821 117.717 11.9413 117.717 14.6103C117.717 17.2788 116.842 19.5244 115.092 21.3463C113.341 23.1682 111.161 24.0789 108.552 24.0789H101.006Z" fill="white"/>
<path fill-rule="evenodd" clip-rule="evenodd" d="M36.0469 39.4774V27.1572H38.5598L42.1172 32.9824L45.6489 27.1572H48.1788V39.4774H45.7353V31.4872L42.2552 37.2095H41.9706L38.4908 31.5045V39.4774H36.0469Z" fill="white"/>
<path fill-rule="evenodd" clip-rule="evenodd" d="M50.459 39.4774V27.1572H58.0322V29.4772H52.9029V32.123H57.5826V34.3913H52.9029V37.1578H58.1186V39.4774H50.459Z" fill="white"/>
<path fill-rule="evenodd" clip-rule="evenodd" d="M59.8281 39.4774V27.1572H67.4013V29.4772H62.272V32.123H66.9522V34.3913H62.272V37.1578H67.4877V39.4774H59.8281Z" fill="white"/>
<path fill-rule="evenodd" clip-rule="evenodd" d="M68.2891 29.4771V27.1574H77.3817V29.4771H74.0482V39.4773H71.6047V29.4771H68.2891Z" fill="white"/>
<path fill-rule="evenodd" clip-rule="evenodd" d="M78.7383 39.4774H81.1822V27.1571H78.7383V39.4774Z" fill="white"/>
<path fill-rule="evenodd" clip-rule="evenodd" d="M83.4707 39.4774V27.1572H85.3275L90.638 34.6749V27.1572H93.0815V39.4774H91.218L85.9146 31.9427V39.4774H83.4707Z" fill="white"/>
<path fill-rule="evenodd" clip-rule="evenodd" d="M94.8086 33.3384C94.8086 31.5446 95.4347 30.0258 96.687 28.7823C97.9389 27.5387 99.4829 26.9166 101.319 26.9166C102.477 26.9166 103.533 27.1795 104.488 27.7045C105.444 28.23 106.186 28.9311 106.716 29.8083L104.627 30.994C104.333 30.4938 103.888 30.0857 103.293 29.7699C102.696 29.4545 102.033 29.2965 101.302 29.2965C100.122 29.2965 99.1517 29.6781 98.3922 30.4417C97.6323 31.2048 97.2525 32.1705 97.2525 33.3384C97.2525 34.5001 97.6381 35.4583 98.4093 36.214C99.1804 36.9693 100.205 37.3468 101.483 37.3468C102.427 37.3468 103.209 37.1409 103.828 36.7283C104.446 36.3166 104.865 35.7494 105.084 35.0272H101.337V32.8622H107.545V33.8159C107.545 35.5741 106.98 36.9987 105.848 38.0901C104.717 39.181 103.256 39.7267 101.466 39.7267C99.5548 39.7267 97.9676 39.1087 96.7041 37.8718C95.4406 36.6357 94.8086 35.1243 94.8086 33.3384Z" fill="white"/>
<path fill-rule="evenodd" clip-rule="evenodd" d="M108.172 36.6787L110.261 35.4712C110.745 36.7217 111.694 37.3468 113.11 37.3468C113.793 37.3468 114.293 37.224 114.609 36.9784C114.925 36.7333 115.083 36.4249 115.083 36.0537C115.083 35.6196 114.889 35.2831 114.501 35.0429C114.114 34.8031 113.42 34.5435 112.421 34.2636C111.869 34.0983 111.401 33.9337 111.018 33.7713C110.634 33.6084 110.249 33.3889 109.862 33.1119C109.475 32.8349 109.182 32.4868 108.983 32.0672C108.784 31.6476 108.684 31.1581 108.684 30.5984C108.684 29.4747 109.082 28.5805 109.877 27.915C110.673 27.2494 111.633 26.9166 112.756 26.9166C113.757 26.9166 114.637 27.1622 115.396 27.6533C116.155 28.1444 116.747 28.8265 117.173 29.6992L115.118 30.8725C114.623 29.822 113.837 29.2966 112.756 29.2966C112.251 29.2966 111.853 29.4107 111.563 29.6393C111.273 29.8675 111.128 30.1643 111.128 30.5297C111.128 30.9179 111.291 31.2309 111.615 31.4678C111.939 31.7046 112.561 31.963 113.48 32.2429C113.859 32.357 114.145 32.4467 114.338 32.5124C114.531 32.5782 114.795 32.6778 115.132 32.8122C115.469 32.9465 115.728 33.0718 115.909 33.1892C116.09 33.3062 116.298 33.4645 116.534 33.6642C116.77 33.8643 116.95 34.0697 117.074 34.281C117.197 34.4922 117.304 34.7465 117.392 35.0433C117.482 35.3401 117.527 35.6655 117.527 36.0193C117.527 37.1579 117.111 38.0603 116.28 38.7271C115.449 39.3936 114.369 39.7268 113.041 39.7268C111.815 39.7268 110.784 39.4535 109.946 38.907C109.109 38.36 108.517 37.6176 108.172 36.6787Z" fill="white"/>
<path d="M28.1623 7.02163C25.7894 6.23531 22.5596 7.34927 21.2413 8.00454L16.2977 5.05583C15.8033 5.38346 15.7044 5.3507 19.2638 2.59856C22.8232 -0.153579 28.9863 -0.186343 31.6229 0.141293V8.496C31.4581 8.33218 30.5353 7.80796 28.1623 7.02163Z" fill="white"/>
<path d="M64.5 67L50 45H79L64.5 67Z" fill="#4671F0" stroke="black" stroke-width="2"/>
</svg>
