<svg width="96" height="40" viewBox="0 0 96 40" fill="none" xmlns="http://www.w3.org/2000/svg">
<rect width="96" height="40" rx="20" fill="#4671F0"/>
<path d="M20.732 26.168C20.0693 26.168 19.4533 26.0467 18.884 25.804C18.324 25.5613 17.8387 25.2253 17.428 24.796C17.0267 24.3573 16.7327 23.8487 16.546 23.27L18.128 22.584C18.38 23.1813 18.744 23.6527 19.22 23.998C19.696 24.334 20.2327 24.502 20.83 24.502C21.166 24.502 21.4553 24.4507 21.698 24.348C21.95 24.236 22.1413 24.0867 22.272 23.9C22.412 23.7133 22.482 23.4893 22.482 23.228C22.482 22.92 22.3887 22.668 22.202 22.472C22.0247 22.2667 21.754 22.108 21.39 21.996L19.388 21.352C18.576 21.1 17.9647 20.722 17.554 20.218C17.1433 19.714 16.938 19.1213 16.938 18.44C16.938 17.8427 17.0827 17.3153 17.372 16.858C17.6707 16.4007 18.0813 16.046 18.604 15.794C19.136 15.5327 19.7427 15.402 20.424 15.402C21.0493 15.402 21.6233 15.514 22.146 15.738C22.6687 15.9527 23.1167 16.256 23.49 16.648C23.8727 17.0307 24.1573 17.4833 24.344 18.006L22.776 18.706C22.5707 18.1833 22.2627 17.782 21.852 17.502C21.4413 17.2127 20.9653 17.068 20.424 17.068C20.1067 17.068 19.8267 17.124 19.584 17.236C19.3413 17.3387 19.15 17.488 19.01 17.684C18.8793 17.8707 18.814 18.0947 18.814 18.356C18.814 18.6453 18.9073 18.902 19.094 19.126C19.2807 19.3407 19.5653 19.5087 19.948 19.63L21.866 20.232C22.6967 20.5027 23.3173 20.876 23.728 21.352C24.148 21.828 24.358 22.416 24.358 23.116C24.358 23.7133 24.204 24.2407 23.896 24.698C23.588 25.1553 23.1633 25.5147 22.622 25.776C22.0807 26.0373 21.4507 26.168 20.732 26.168ZM29.4465 26.168C28.6625 26.168 27.9765 25.9907 27.3885 25.636C26.8005 25.2813 26.3431 24.8007 26.0165 24.194C25.6898 23.5873 25.5265 22.9153 25.5265 22.178C25.5265 21.4127 25.6898 20.736 26.0165 20.148C26.3525 19.5507 26.8051 19.0793 27.3745 18.734C27.9531 18.3887 28.5971 18.216 29.3065 18.216C29.9038 18.216 30.4265 18.314 30.8745 18.51C31.3318 18.706 31.7191 18.9767 32.0365 19.322C32.3538 19.6673 32.5965 20.064 32.7645 20.512C32.9325 20.9507 33.0165 21.4267 33.0165 21.94C33.0165 22.0707 33.0071 22.206 32.9885 22.346C32.9791 22.486 32.9558 22.6073 32.9185 22.71H27.0385V21.31H31.8825L31.0145 21.968C31.0985 21.5387 31.0751 21.156 30.9445 20.82C30.8231 20.484 30.6178 20.218 30.3285 20.022C30.0485 19.826 29.7078 19.728 29.3065 19.728C28.9238 19.728 28.5831 19.826 28.2845 20.022C27.9858 20.2087 27.7571 20.4887 27.5985 20.862C27.4491 21.226 27.3931 21.6693 27.4305 22.192C27.3931 22.6587 27.4538 23.074 27.6125 23.438C27.7805 23.7927 28.0231 24.068 28.3405 24.264C28.6671 24.46 29.0405 24.558 29.4605 24.558C29.8805 24.558 30.2351 24.4693 30.5245 24.292C30.8231 24.1147 31.0565 23.8767 31.2245 23.578L32.7085 24.306C32.5591 24.67 32.3258 24.992 32.0085 25.272C31.6911 25.552 31.3131 25.7713 30.8745 25.93C30.4451 26.0887 29.9691 26.168 29.4465 26.168ZM34.3227 26V18.384H36.0447V19.882L35.9047 19.616C36.0821 19.1587 36.3714 18.8133 36.7727 18.58C37.1834 18.3373 37.6594 18.216 38.2007 18.216C38.7607 18.216 39.2554 18.3373 39.6847 18.58C40.1234 18.8227 40.4641 19.1633 40.7067 19.602C40.9494 20.0313 41.0707 20.5307 41.0707 21.1V26H39.2367V21.534C39.2367 21.198 39.1714 20.9087 39.0407 20.666C38.9101 20.4233 38.7281 20.2367 38.4947 20.106C38.2707 19.966 38.0047 19.896 37.6967 19.896C37.3981 19.896 37.1321 19.966 36.8987 20.106C36.6654 20.2367 36.4834 20.4233 36.3527 20.666C36.2221 20.9087 36.1567 21.198 36.1567 21.534V26H34.3227ZM46.0795 26.168C45.3422 26.168 44.6842 25.9953 44.1055 25.65C43.5269 25.2953 43.0695 24.8147 42.7335 24.208C42.3975 23.6013 42.2295 22.9293 42.2295 22.192C42.2295 21.4453 42.3975 20.7733 42.7335 20.176C43.0695 19.5787 43.5269 19.1027 44.1055 18.748C44.6935 18.3933 45.3469 18.216 46.0655 18.216C46.6442 18.216 47.1575 18.3327 47.6055 18.566C48.0629 18.79 48.4222 19.1073 48.6835 19.518L48.4035 19.896V15.402H50.2375V26H48.5015V24.53L48.6975 24.894C48.4362 25.3047 48.0722 25.622 47.6055 25.846C47.1389 26.0607 46.6302 26.168 46.0795 26.168ZM46.2755 24.488C46.6955 24.488 47.0642 24.39 47.3815 24.194C47.6989 23.998 47.9462 23.7273 48.1235 23.382C48.3102 23.0367 48.4035 22.64 48.4035 22.192C48.4035 21.7533 48.3102 21.3613 48.1235 21.016C47.9462 20.6613 47.6989 20.386 47.3815 20.19C47.0642 19.994 46.6955 19.896 46.2755 19.896C45.8649 19.896 45.4962 19.9987 45.1695 20.204C44.8429 20.4 44.5862 20.6707 44.3995 21.016C44.2222 21.352 44.1335 21.744 44.1335 22.192C44.1335 22.64 44.2222 23.0367 44.3995 23.382C44.5862 23.7273 44.8429 23.998 45.1695 24.194C45.4962 24.39 45.8649 24.488 46.2755 24.488Z" fill="white"/>
<path d="M78.2701 18.6313L65.1404 11.1391C64.8636 10.9841 64.5461 10.9169 64.2302 10.9467C63.9143 10.9765 63.6149 11.1017 63.3719 11.3058C63.1289 11.5098 62.9538 11.783 62.8699 12.089C62.786 12.395 62.7972 12.7193 62.9021 13.0188L65.2599 20.0001L62.9021 26.9813C62.8192 27.2168 62.794 27.4688 62.8285 27.7161C62.863 27.9634 62.9563 28.1988 63.1005 28.4026C63.2447 28.6064 63.4357 28.7727 63.6574 28.8875C63.8791 29.0023 64.1251 29.0624 64.3748 29.0626C64.6433 29.062 64.9071 28.9926 65.1412 28.861L65.1482 28.8563L78.2732 21.3508C78.5138 21.2146 78.714 21.017 78.8533 20.7781C78.9926 20.5392 79.066 20.2676 79.066 19.9911C79.066 19.7145 78.9926 19.443 78.8533 19.2041C78.714 18.9652 78.5138 18.7675 78.2732 18.6313H78.2701ZM64.9365 26.8173L66.9224 20.9376H71.2498C71.4984 20.9376 71.7369 20.8388 71.9127 20.663C72.0885 20.4872 72.1873 20.2487 72.1873 20.0001C72.1873 19.7514 72.0885 19.513 71.9127 19.3372C71.7369 19.1613 71.4984 19.0626 71.2498 19.0626H66.9224L64.9357 13.1813L76.8701 19.9915L64.9365 26.8173Z" fill="white"/>
</svg>
