<svg width="15" height="16" viewBox="0 0 15 16" fill="none" xmlns="http://www.w3.org/2000/svg">
<path d="M14.9999 8.00001C14.9999 12.1422 11.6421 15.5 7.49989 15.5C6.87986 15.5 6.27736 15.4247 5.70102 15.2829C3.24497 14.2055 1.5293 11.7524 1.5293 8.89839C1.5293 5.05003 4.64933 1.93026 8.49769 1.93026C11.0932 1.93026 13.3575 3.34953 14.5565 5.45422C14.8434 6.24901 14.9999 7.10633 14.9999 8.00001Z" fill="#FEBC1F"/>
<path d="M14.5566 5.45422C13.3576 3.34952 11.0933 1.93025 8.4978 1.93025C4.64943 1.93025 1.52941 5.05002 1.52941 8.89839C1.52941 11.7524 3.24508 14.2055 5.70113 15.2829C2.42779 14.4771 0 11.5221 0 8C0 3.85784 3.35784 0.5 7.5 0.5C10.7485 0.5 13.5145 2.56519 14.5566 5.45422Z" fill="#FFD06C"/>
<path d="M7.50008 12.9315C10.2238 12.9315 12.4318 10.7235 12.4318 7.99974C12.4318 5.27603 10.2238 3.06802 7.50008 3.06802C4.77637 3.06802 2.56836 5.27603 2.56836 7.99974C2.56836 10.7235 4.77637 12.9315 7.50008 12.9315Z" fill="#FFD06C"/>
<path d="M7.4999 2.58115C4.50728 2.58115 2.08105 5.00712 2.08105 8C2.08105 10.9929 4.50702 13.4188 7.4999 13.4188C10.4928 13.4188 12.9187 10.9929 12.9187 8C12.9187 5.00712 10.4928 2.58115 7.4999 2.58115ZM7.4999 12.9317C4.77622 12.9317 2.56818 10.7237 2.56818 8C2.56818 5.27632 4.77622 3.06828 7.4999 3.06828C10.2236 3.06828 12.4316 5.27632 12.4316 8C12.4316 10.7237 10.2236 12.9317 7.4999 12.9317Z" fill="#F9A83D"/>
<path d="M9.51497 8.56509C9.47364 8.61715 9.45219 8.68255 9.45533 8.749L9.52884 10.4129C9.53773 10.6104 9.34178 10.7527 9.15682 10.6834L7.59707 10.0992C7.5348 10.0757 7.466 10.0757 7.40373 10.0992L5.84398 10.6834C5.78826 10.7043 5.73149 10.7059 5.67969 10.6928L8.74504 6.35574C8.76387 6.36647 8.78428 6.37484 8.80521 6.3806L10.4105 6.82482C10.6009 6.8774 10.6758 7.10763 10.5525 7.26224L9.51497 8.56509Z" fill="#F9A83D"/>
<path d="M8.74383 6.35575L5.67848 10.6928C5.55814 10.6619 5.46448 10.551 5.4705 10.4129L5.54427 8.74901C5.54715 8.68256 5.52596 8.61715 5.48436 8.56509L4.44679 7.26225C4.32383 7.10763 4.39866 6.87741 4.58911 6.82482L6.19413 6.3806C6.25848 6.36307 6.31394 6.32252 6.35083 6.26706L7.2691 4.87762C7.3782 4.7128 7.62019 4.7128 7.72929 4.87762L8.64756 6.26706C8.67215 6.30421 8.70511 6.33482 8.74383 6.35575Z" fill="#FEBC1F"/>
</svg>
