<svg width="14" height="14" viewBox="0 0 14 14" fill="none" xmlns="http://www.w3.org/2000/svg">
<path d="M6.95759 2.80006C7.24693 2.7981 7.53521 2.83458 7.81486 2.9086L7.84212 2.91593L7.85949 2.92094C8.22184 3.03015 8.43294 3.40902 8.33233 3.77604C8.23173 4.14306 7.85691 4.36143 7.48949 4.2707L7.472 4.26614L7.45644 4.26195C7.30073 4.22073 7.14032 4.19989 6.97924 4.19993L6.96314 4.2C6.96082 4.20002 6.95849 4.20004 6.95617 4.20003C6.58735 4.19966 6.22494 4.29637 5.90537 4.48044C5.58581 4.66451 5.32035 4.92945 5.13571 5.24862C4.95105 5.5678 4.85372 5.92995 4.85348 6.29867C4.85324 6.66738 4.95012 7.02966 5.13435 7.34907C5.3186 7.66848 5.58372 7.93376 5.90305 8.11824C6.22237 8.30272 6.58466 8.3999 6.95347 8.4C7.32227 8.40009 7.68462 8.3031 8.00404 8.11879C8.32346 7.93447 8.58872 7.66932 8.77312 7.35001L8.78235 7.33447C8.97983 7.01169 9.39994 6.90352 9.72959 7.0938C10.0645 7.2871 10.1792 7.7152 9.98587 8.05L9.97136 8.07488C9.66468 8.59597 9.22812 9.02891 8.70406 9.3313C8.17169 9.6385 7.56779 9.80015 6.95311 9.79999C6.33842 9.79983 5.73462 9.63786 5.20241 9.3304C4.67019 9.02293 4.22834 8.5808 3.92127 8.04845C3.6142 7.5161 3.45273 6.9123 3.45313 6.29778C3.45352 5.68326 3.61576 5.07966 3.92351 4.54771C4.23126 4.01575 4.67368 3.57417 5.20629 3.26738C5.7389 2.9606 6.34292 2.79942 6.9576 2.80005L6.95759 2.80006Z" fill="black"/>
<path d="M9.7998 12.6C9.7998 11.8574 9.5048 11.1452 8.9797 10.6201C8.4628 10.1032 7.76463 9.80927 7.0346 9.80021L6.9998 9.79999C6.2572 9.79999 5.54501 10.095 5.01991 10.6201C4.49481 11.1452 4.1998 11.8574 4.1998 12.6H9.7998ZM11.1998 6.29999V5.59999H10.4998C10.1132 5.59999 9.7998 5.28659 9.7998 4.89999C9.7998 4.51339 10.1132 4.19999 10.4998 4.19999H11.1998V3.49999C11.1998 3.11339 11.5132 2.79999 11.8998 2.79999C12.2864 2.79999 12.5998 3.11339 12.5998 3.49999V4.19999H13.2998C13.6864 4.19999 13.9998 4.51339 13.9998 4.89999C13.9998 5.28659 13.6864 5.59999 13.2998 5.59999H12.5998V6.29999C12.5998 6.68659 12.2864 6.99999 11.8998 6.99999C11.5132 6.99999 11.1998 6.68659 11.1998 6.29999ZM11.1998 13.3C11.1998 13.6866 10.8864 14 10.4998 14H3.4998C3.11321 14 2.7998 13.6866 2.7998 13.3V12.6C2.7998 11.4861 3.2423 10.4178 4.02995 9.63013C4.8176 8.84248 5.8859 8.39999 6.9998 8.39999L7.0259 8.40007C8.13039 8.40693 9.18816 8.84863 9.96966 9.63013C10.7573 10.4178 11.1998 11.4861 11.1998 12.6V13.3Z" fill="black"/>
<path d="M0 12.6V1.4C0 1.0287 0.147503 0.672605 0.410054 0.410054C0.672605 0.147503 1.0287 0 1.4 0H11.9C12.2866 0 12.6 0.313401 12.6 0.7C12.6 1.0866 12.2866 1.4 11.9 1.4H1.4V12.6H12.6V9.1C12.6 8.7134 12.9134 8.4 13.3 8.4C13.6866 8.4 14 8.7134 14 9.1V12.6C14 12.9713 13.8525 13.3274 13.5899 13.5899C13.3274 13.8525 12.9713 14 12.6 14H1.4C1.0287 14 0.672606 13.8525 0.410054 13.5899C0.151606 13.3315 0.0046331 12.9824 0.000102539 12.6174L0 12.6Z" fill="black"/>
</svg>
