<svg width="25" height="25" viewBox="0 0 25 25" fill="none" xmlns="http://www.w3.org/2000/svg">
<path d="M17.7436 7.966C17.7436 6.67601 16.6978 5.63025 15.4078 5.63025H7.55768C6.26768 5.63025 5.22192 6.67601 5.22192 7.966V15.8161C5.22192 17.1062 6.26768 18.1519 7.55768 18.1519H15.4078C16.6978 18.1519 17.7436 17.1062 17.7436 15.8161V7.966ZM19.3522 15.8161C19.3522 17.9946 17.5863 19.7605 15.4078 19.7605H7.55768C5.37926 19.7605 3.61328 17.9946 3.61328 15.8161V7.966C3.61328 5.78758 5.37925 4.02161 7.55768 4.02161H15.4078C17.5863 4.02161 19.3522 5.78758 19.3522 7.966V15.8161Z" fill="black"/>
<path d="M20.7724 18.8447V10.9944C20.7724 10.5502 21.1326 10.1901 21.5768 10.1901C22.021 10.1901 22.3811 10.5502 22.3811 10.9944V18.8447C22.3811 21.023 20.6152 22.789 18.4367 22.7891H10.5865C10.1423 22.7891 9.78223 22.4289 9.78223 21.9847C9.78223 21.5405 10.1423 21.1804 10.5865 21.1804H18.4367C19.7267 21.1804 20.7724 20.1346 20.7724 18.8447Z" fill="black"/>
</svg>
