<svg width="25" height="25" viewBox="0 0 25 25" fill="none" xmlns="http://www.w3.org/2000/svg">
<path d="M12.5 7.72919C12.8624 7.72919 13.1562 8.03699 13.1562 8.41669V13.1735L14.661 11.5972C14.9173 11.3288 15.3327 11.3288 15.589 11.5972C15.8453 11.8657 15.8453 12.301 15.589 12.5695L12.964 15.3195C12.841 15.4484 12.674 15.5209 12.5 15.5209C12.326 15.5209 12.159 15.4484 12.036 15.3195L9.41096 12.5695C9.15468 12.301 9.15468 11.8657 9.41096 11.5972C9.66724 11.3288 10.0828 11.3288 10.339 11.5972L11.8437 13.1735V8.41669C11.8437 8.03699 12.1376 7.72919 12.5 7.72919Z" fill="black"/>
<path d="M8.34375 17.5833C8.34375 17.2036 8.63757 16.8958 9 16.8958H16C16.3624 16.8958 16.6562 17.2036 16.6562 17.5833C16.6562 17.963 16.3624 18.2708 16 18.2708H9C8.63757 18.2708 8.34375 17.963 8.34375 17.5833Z" fill="black"/>
<path fill-rule="evenodd" clip-rule="evenodd" d="M12.4498 3.14581C10.43 3.1458 8.84704 3.14579 7.61199 3.31975C6.34785 3.4978 5.35033 3.86937 4.56737 4.68961C3.78441 5.50985 3.42974 6.55487 3.25978 7.87921C3.09373 9.17307 3.09374 10.8314 3.09375 12.9474V13.0526C3.09374 15.1686 3.09373 16.8269 3.25978 18.1208C3.42974 19.4451 3.78441 20.4902 4.56737 21.3104C5.35033 22.1306 6.34785 22.5021 7.61199 22.6803C8.84704 22.8541 10.43 22.8541 12.4498 22.8541H12.5502C14.5701 22.8541 16.153 22.8541 17.388 22.6803C18.6521 22.5021 19.6497 22.1306 20.4327 21.3104C21.2156 20.4902 21.5703 19.4451 21.7403 18.1208C21.9063 16.8269 21.9062 15.1686 21.9062 13.0526V12.9474C21.9062 10.8314 21.9063 9.17307 21.7403 7.87921C21.5703 6.55487 21.2156 5.50985 20.4327 4.68961C19.6497 3.86937 18.6521 3.4978 17.388 3.31975C16.153 3.14579 14.5701 3.1458 12.5502 3.14581H12.4498ZM5.49545 5.66188C5.99389 5.13969 6.66827 4.84004 7.78688 4.68249C8.92437 4.52227 10.419 4.52081 12.5 4.52081C14.5809 4.52081 16.0756 4.52227 17.2131 4.68249C18.3317 4.84004 19.0061 5.13969 19.5045 5.66188C20.003 6.18406 20.2891 6.89055 20.4394 8.06243C20.5924 9.25408 20.5937 10.8199 20.5937 13C20.5937 15.18 20.5924 16.7458 20.4394 17.9375C20.2891 19.1094 20.003 19.8159 19.5045 20.3381C19.0061 20.8603 18.3317 21.16 17.2131 21.3174C16.0756 21.4777 14.5809 21.4791 12.5 21.4791C10.419 21.4791 8.92437 21.4777 7.78688 21.3174C6.66827 21.16 5.99389 20.8603 5.49545 20.3381C4.997 19.8159 4.71097 19.1094 4.56057 17.9375C4.40764 16.7458 4.40625 15.18 4.40625 13C4.40625 10.8199 4.40764 9.25408 4.56057 8.06243C4.71097 6.89055 4.997 6.18406 5.49545 5.66188Z" fill="black"/>
</svg>
