<svg width="25" height="25" viewBox="0 0 25 25" fill="none" xmlns="http://www.w3.org/2000/svg">
<g clip-path="url(#clip0_67_1245)">
<path d="M13.0525 2.51585C13.2845 2.3295 13.6028 2.29095 13.873 2.41752C14.1476 2.5461 14.3229 2.82188 14.3229 3.12501V21.875C14.3229 22.1781 14.1476 22.4539 13.873 22.5825C13.5985 22.7111 13.2744 22.6692 13.0415 22.4752L7.00882 17.4479H5.20834C3.62629 17.4479 2.34376 16.1655 2.34375 14.5834V10.4167C2.34376 8.83461 3.62628 7.5521 5.20834 7.5521H7.00882L13.0415 2.52485L13.0525 2.51585ZM21.0938 12.5C21.0938 10.5041 20.5893 8.18111 19.2705 6.83409L19.2392 6.80244L19.2252 6.78801C18.9342 6.48194 18.9389 5.99791 19.2392 5.69758C19.5396 5.39725 20.0236 5.39257 20.3297 5.68351L20.3441 5.69758L20.3857 5.73957C22.1353 7.52524 22.6562 10.3618 22.6562 12.5C22.6562 14.6551 22.127 17.5195 20.3441 19.3024C20.039 19.6075 19.5443 19.6075 19.2392 19.3024C18.9341 18.9973 18.9341 18.5027 19.2392 18.1976L19.2705 18.1659C20.5893 16.8189 21.0937 14.4959 21.0938 12.5ZM16.9271 12.5C16.9271 11.1267 16.477 10.3019 16.1306 9.94413L16.1142 9.92744L16.1002 9.91301C15.8092 9.60694 15.8139 9.12291 16.1142 8.82258C16.4146 8.52225 16.8986 8.51757 17.2047 8.80851L17.2191 8.82258L17.2515 8.85548C17.9303 9.55516 18.4896 10.7971 18.4896 12.5C18.4896 14.2029 17.9303 15.4449 17.2515 16.1445L17.2191 16.1774C16.914 16.4825 16.4193 16.4825 16.1142 16.1774C15.8091 15.8723 15.8091 15.3777 16.1142 15.0726L16.1306 15.0559C16.477 14.6981 16.9271 13.8733 16.9271 12.5ZM3.90625 14.5834C3.90626 15.3025 4.48922 15.8854 5.20834 15.8854H7.29166L7.30878 15.8856C7.48545 15.8895 7.65579 15.9532 7.79181 16.0665L12.7604 20.207V4.79298L7.79181 8.93351C7.65141 9.05052 7.47442 9.1146 7.29166 9.1146H5.20834C4.48923 9.1146 3.90626 9.69755 3.90625 10.4167V14.5834Z" fill="black"/>
</g>
<defs>
<clipPath id="clip0_67_1245">
<rect width="25" height="25" fill="white"/>
</clipPath>
</defs>
</svg>
