<svg width="25" height="25" viewBox="0 0 25 25" fill="none" xmlns="http://www.w3.org/2000/svg">
<path d="M12.5 18.2708C12.1376 18.2708 11.8438 17.963 11.8438 17.5833L11.8438 12.8265L10.339 14.4028C10.0827 14.6712 9.66728 14.6712 9.41099 14.4028C9.1547 14.1343 9.1547 13.699 9.41099 13.4305L12.036 10.6805C12.159 10.5516 12.326 10.4791 12.5 10.4791C12.674 10.4791 12.841 10.5516 12.964 10.6805L15.589 13.4305C15.8453 13.699 15.8453 14.1343 15.589 14.4028C15.3328 14.6712 14.9172 14.6712 14.661 14.4028L13.1563 12.8265L13.1563 17.5833C13.1563 17.963 12.8624 18.2708 12.5 18.2708Z" fill="black"/>
<path d="M16.6563 8.41669C16.6563 8.79637 16.3624 9.10419 16 9.10419L9 9.10419C8.63758 9.10419 8.34375 8.79637 8.34375 8.41669C8.34375 8.037 8.63758 7.72919 9 7.72919L16 7.72919C16.3624 7.72919 16.6563 8.037 16.6563 8.41669Z" fill="black"/>
<path fill-rule="evenodd" clip-rule="evenodd" d="M12.5502 22.8542C14.57 22.8542 16.153 22.8542 17.388 22.6802C18.6522 22.5022 19.6497 22.1306 20.4326 21.3104C21.2156 20.4901 21.5703 19.4451 21.7402 18.1208C21.9063 16.8269 21.9063 15.1686 21.9063 13.0526L21.9063 12.9474C21.9063 10.8314 21.9063 9.17312 21.7402 7.87924C21.5703 6.55494 21.2156 5.50984 20.4326 4.68961C19.6497 3.86938 18.6522 3.49785 17.388 3.31974C16.153 3.14585 14.5701 3.14585 12.5502 3.14585L12.4498 3.14585C10.4299 3.14585 8.84705 3.14585 7.61199 3.31974C6.34788 3.49785 5.35029 3.86938 4.56734 4.68961C3.78439 5.50984 3.42975 6.55493 3.25974 7.87924C3.09375 9.17312 3.09375 10.8314 3.09375 12.9474L3.09375 13.0526C3.09375 15.1686 3.09375 16.8269 3.25974 18.1208C3.42975 19.4451 3.78439 20.4901 4.56734 21.3104C5.35029 22.1306 6.34787 22.5022 7.61199 22.6802C8.84705 22.8542 10.4299 22.8542 12.4498 22.8542L12.5502 22.8542ZM19.5045 20.3381C19.0061 20.8603 18.3317 21.16 17.2131 21.3175C16.0756 21.4777 14.581 21.4792 12.5 21.4792C10.4191 21.4792 8.9244 21.4777 7.7869 21.3175C6.6683 21.16 5.99394 20.8603 5.49545 20.3381C4.99696 19.8159 4.71092 19.1094 4.5606 17.9376C4.40765 16.7459 4.40625 15.1801 4.40625 13C4.40625 10.82 4.40765 9.25415 4.5606 8.06248C4.71093 6.89062 4.99696 6.18414 5.49545 5.66192C5.99394 5.13969 6.6683 4.84003 7.7869 4.68255C8.9244 4.52232 10.4191 4.52085 12.5 4.52085C14.581 4.52085 16.0756 4.52232 17.2131 4.68255C18.3317 4.84004 19.0061 5.1397 19.5046 5.66192C20.003 6.18415 20.289 6.89062 20.4394 8.06249C20.5924 9.25415 20.5938 10.82 20.5938 13C20.5938 15.1801 20.5924 16.7459 20.4394 17.9376C20.289 19.1094 20.003 19.8159 19.5045 20.3381Z" fill="black"/>
</svg>
