<svg width="16" height="16" viewBox="0 0 16 16" fill="none" xmlns="http://www.w3.org/2000/svg">
<path d="M10.0068 4.83333L10.1074 4.84309C10.3353 4.88968 10.5068 5.09167 10.5068 5.33333C10.5068 5.57498 10.3353 5.77697 10.1074 5.82356L10.0068 5.83333H10C9.72386 5.83333 9.5 5.60947 9.5 5.33333C9.5 5.05719 9.72386 4.83333 10 4.83333H10.0068Z" fill="black"/>
<path d="M13.25 7.66699V4C13.25 3.66848 13.1182 3.35063 12.8838 3.11621C12.6494 2.88179 12.3315 2.75 12 2.75H4C3.66848 2.75 3.35063 2.88179 3.11621 3.11621C2.88179 3.35063 2.75 3.66848 2.75 4V12C2.75 12.3315 2.88179 12.6494 3.11621 12.8838C3.35063 13.1182 3.66848 13.25 4 13.25H7.66699L7.74316 13.2539C8.12144 13.2922 8.41699 13.6116 8.41699 14C8.41699 14.3884 8.12144 14.7078 7.74316 14.7461L7.66699 14.75H4C3.27065 14.75 2.57139 14.4601 2.05566 13.9443C1.53994 13.4286 1.25 12.7293 1.25 12V4C1.25 3.27065 1.53994 2.57139 2.05566 2.05566C2.57139 1.53994 3.27065 1.25 4 1.25H12C12.7293 1.25 13.4286 1.53994 13.9443 2.05566C14.4601 2.57139 14.75 3.27065 14.75 4V7.66699C14.7498 8.08106 14.4141 8.41699 14 8.41699C13.5859 8.41699 13.2502 8.08106 13.25 7.66699Z" fill="black"/>
<path d="M13.4922 11.8516C13.458 11.5083 13.3066 11.1855 13.0605 10.9395C12.7792 10.6581 12.3978 10.5 12 10.5C11.6022 10.5 11.2208 10.6581 10.9395 10.9395C10.6581 11.2208 10.5 11.6022 10.5 12C10.5 12.3978 10.6581 12.7792 10.9395 13.0605C11.2208 13.3419 11.6022 13.5 12 13.5L12.1484 13.4922C12.4917 13.458 12.8145 13.3066 13.0605 13.0605C13.3419 12.7792 13.5 12.3978 13.5 12L13.4922 11.8516ZM14.4873 12.2471C14.4305 12.8194 14.1778 13.3573 13.7676 13.7676C13.3573 14.1778 12.8194 14.4305 12.2471 14.4873L12 14.5C11.337 14.5 10.7013 14.2364 10.2324 13.7676C9.76358 13.2987 9.5 12.663 9.5 12C9.5 11.337 9.76358 10.7013 10.2324 10.2324C10.7013 9.76358 11.337 9.5 12 9.5C12.663 9.5 13.2987 9.76358 13.7676 10.2324C14.2364 10.7013 14.5 11.337 14.5 12L14.4873 12.2471Z" fill="black"/>
<path d="M13.113 13.1132C13.2839 12.9423 13.5478 12.9205 13.7419 13.0487L13.82 13.1132L15.0202 14.3133L15.0837 14.3915C15.212 14.5856 15.1912 14.8495 15.0202 15.0204C14.8493 15.1913 14.5854 15.2122 14.3913 15.0839L14.3132 15.0204L13.113 13.8202L13.0485 13.7421C12.9204 13.548 12.9421 13.284 13.113 13.1132Z" fill="black"/>
<path d="M6.33295 6.13684C6.83518 6.13684 7.29948 6.3286 7.69037 6.64856L7.85346 6.79309L9.19721 8.13586L9.24799 8.19348C9.48835 8.48806 9.47183 8.92277 9.19721 9.19739C8.92258 9.47196 8.48786 9.48852 8.1933 9.24817L8.13666 9.19739L6.81342 7.87415L6.67182 7.75696C6.53648 7.66363 6.42056 7.63684 6.33295 7.63684C6.21619 7.63693 6.05 7.68502 5.85346 7.87415L5.85248 7.87317L2.53022 11.1974L2.47358 11.2482C2.17907 11.4886 1.74437 11.4719 1.46967 11.1974C1.17678 10.9045 1.17678 10.4288 1.46967 10.1359L4.80268 6.80286L4.81342 6.79309L4.97651 6.64856C5.36727 6.32876 5.83093 6.13692 6.33295 6.13684Z" fill="black"/>
</svg>
