<svg width="41" height="41" viewBox="0 0 41 41" fill="none" xmlns="http://www.w3.org/2000/svg">
<rect width="41" height="41" rx="10" fill="black"/>
<mask id="mask0_10_12899" style="mask-type:alpha" maskUnits="userSpaceOnUse" x="11" y="9" width="17" height="16">
<path d="M11.9736 9.30643H27.4056V24.7025H11.9736V9.30643Z" fill="white"/>
</mask>
<g mask="url(#mask0_10_12899)">
<path fill-rule="evenodd" clip-rule="evenodd" d="M19.6695 20.6189C21.7025 20.6254 23.3214 19.04 23.339 17.0255C23.3563 15.0206 21.7479 13.4059 19.7144 13.3868C17.6933 13.3677 16.0484 14.9782 16.0439 16.981C16.0392 19.0004 17.6458 20.6121 19.6695 20.6189ZM11.9736 17.0092C11.9757 12.7381 15.4065 9.31225 19.6872 9.30642C23.9605 9.30084 27.3962 12.7253 27.4056 16.9994C27.4147 21.2631 23.983 24.6927 19.6978 24.7025C15.4332 24.7122 11.9715 21.2642 11.9736 17.0092Z" fill="white"/>
</g>
<mask id="mask1_10_12899" style="mask-type:alpha" maskUnits="userSpaceOnUse" x="11" y="24" width="17" height="9">
<path d="M11.9585 24.5862H27.3908V32.4583H11.9585V24.5862Z" fill="white"/>
</mask>
<g mask="url(#mask1_10_12899)">
<path fill-rule="evenodd" clip-rule="evenodd" d="M11.9585 24.5862H15.9677C16.1025 25.8693 16.4909 27.0694 17.6892 27.7027C18.3479 28.0507 19.1503 28.316 19.8823 28.3032C21.8208 28.2694 23.0179 26.9476 23.4009 24.6094H27.3909C27.3988 27.1493 26.4421 29.2273 24.4327 30.755C21.8257 32.7371 18.9577 33.0014 16.0655 31.4847C13.367 30.0695 12.036 27.7281 11.9585 24.5862Z" fill="white"/>
</g>
<path d="M27.8253 12.4976C26.4884 12.0546 24.6687 12.6822 23.926 13.0514L21.1408 11.3901C20.8623 11.5747 20.8066 11.5562 22.8119 10.0057C24.8173 8.45514 28.2895 8.43668 29.7749 8.62127V13.3283C29.6821 13.236 29.1622 12.9406 27.8253 12.4976Z" fill="white"/>
</svg>
