<svg width="21" height="20" viewBox="0 0 21 20" fill="none" xmlns="http://www.w3.org/2000/svg">
<path d="M18.5138 7.0626L18.1643 6.86812C18.11 6.83791 18.0833 6.82276 18.0571 6.80706C17.7963 6.65089 17.5767 6.43513 17.4163 6.17698C17.4002 6.15101 17.385 6.12377 17.3539 6.06994C17.3228 6.01616 17.3071 5.98892 17.2926 5.96195C17.1488 5.69339 17.071 5.3941 17.0663 5.08948C17.0658 5.05886 17.0659 5.02758 17.067 4.96536L17.0739 4.55939C17.0847 3.90973 17.0903 3.5839 16.9989 3.29147C16.9179 3.03173 16.7822 2.79249 16.601 2.58946C16.3963 2.35996 16.1127 2.19623 15.5452 1.86919L15.0738 1.59754C14.5079 1.27141 14.2248 1.1083 13.9243 1.04611C13.6585 0.991094 13.3842 0.993643 13.1194 1.0531C12.8204 1.12021 12.5408 1.28758 11.9822 1.62213L11.9789 1.62365L11.6412 1.8259C11.5878 1.85788 11.5608 1.87399 11.534 1.88888C11.2683 2.03658 10.9718 2.11825 10.6679 2.12801C10.6374 2.12899 10.6062 2.12899 10.5439 2.12899C10.4821 2.12899 10.4495 2.12899 10.419 2.12801C10.1145 2.11821 9.81735 2.03609 9.55129 1.88779C9.52446 1.87284 9.49793 1.85659 9.44447 1.82446L9.10452 1.62038C8.54197 1.28266 8.26028 1.11355 7.95968 1.04611C7.69375 0.986445 7.4185 0.984794 7.15171 1.04052C6.85048 1.10344 6.56734 1.26777 6.00105 1.59642L5.99853 1.59754L5.53299 1.86774L5.52784 1.87089C4.96666 2.1966 4.6854 2.35984 4.48233 2.5884C4.30214 2.79122 4.16745 3.03008 4.08683 3.28915C3.9957 3.58196 4.00055 3.9085 4.01153 4.56122L4.01836 4.96662C4.01939 5.02801 4.02118 5.05852 4.02074 5.08871C4.01621 5.39395 3.93739 5.69385 3.79312 5.96289C3.77886 5.98949 3.76349 6.0161 3.73279 6.06924C3.70207 6.12244 3.68718 6.14888 3.67126 6.17455C3.51018 6.43406 3.28945 6.65109 3.02711 6.80751C3.00116 6.82299 2.97381 6.83787 2.92007 6.86765L2.57491 7.05893C2.00063 7.37718 1.71356 7.53644 1.50467 7.76308C1.31987 7.96359 1.18028 8.20137 1.09506 8.46046C0.998742 8.75325 0.998818 9.08155 1.00032 9.73805L1.00153 10.2748C1.00301 10.9269 1.00504 11.2528 1.10159 11.5436C1.187 11.8008 1.32557 12.0373 1.50933 12.2365C1.71704 12.4618 2.00126 12.6201 2.57118 12.9372L2.91327 13.1275C2.97149 13.1599 3.00079 13.1758 3.02886 13.1928C3.28882 13.3493 3.50783 13.5657 3.66753 13.8237C3.68478 13.8516 3.70134 13.8805 3.73447 13.9385C3.76717 13.9956 3.78391 14.0241 3.79904 14.0527C3.93906 14.3179 4.01402 14.6125 4.01913 14.9122C4.01969 14.9446 4.01922 14.9773 4.0181 15.0432L4.01153 15.4322C4.00048 16.0872 3.99566 16.415 4.08732 16.7087C4.16842 16.9684 4.30395 17.2076 4.48513 17.4107C4.68992 17.6402 4.97383 17.8038 5.54138 18.1309L6.0127 18.4024C6.57866 18.7286 6.86154 18.8914 7.162 18.9537C7.42782 19.0087 7.70228 19.0066 7.96715 18.9471C8.2665 18.8799 8.54699 18.712 9.10729 18.3764L9.44504 18.1742C9.4985 18.1421 9.52561 18.1261 9.55234 18.1112C9.81802 17.9635 10.1142 17.8814 10.4181 17.8717C10.4487 17.8707 10.4799 17.8707 10.5421 17.8707C10.6045 17.8707 10.6357 17.8707 10.6663 17.8717C10.9707 17.8815 11.2689 17.9639 11.5349 18.1122C11.5583 18.1252 11.5818 18.1394 11.623 18.1641L11.9821 18.3797C12.5447 18.7174 12.8258 18.886 13.1264 18.9535C13.3923 19.0132 13.6678 19.0155 13.9346 18.9599C14.2357 18.897 14.5194 18.7323 15.0854 18.4038L15.558 18.1295C16.1195 17.8036 16.401 17.6402 16.6042 17.4116C16.7844 17.2088 16.9193 16.97 16.9999 16.7109C17.0904 16.4203 17.0849 16.0963 17.0741 15.4529L17.067 15.0334C17.0659 14.972 17.0658 14.9414 17.0663 14.9113C17.0708 14.606 17.1483 14.3059 17.2926 14.0369C17.3069 14.0103 17.3224 13.9834 17.3529 13.9305C17.3836 13.8774 17.3996 13.8508 17.4155 13.8252C17.5766 13.5656 17.7975 13.3484 18.0599 13.1919C18.0855 13.1767 18.1119 13.1621 18.1644 13.133L18.1662 13.1322L18.5113 12.9409C19.0856 12.6227 19.3732 12.4632 19.5821 12.2365C19.7669 12.0361 19.9063 11.7986 19.9915 11.5396C20.0873 11.2485 20.0865 10.9221 20.0851 10.2732L20.0838 9.72507C20.0823 9.07286 20.0816 8.74704 19.985 8.45626C19.8996 8.19898 19.7602 7.96253 19.5765 7.76324C19.369 7.53819 19.0843 7.37986 18.5156 7.06342L18.5138 7.0626Z" stroke="black" stroke-width="1.5" stroke-linecap="round" stroke-linejoin="round"/>
<path d="M6.72412 10.0001C6.72412 12.109 8.43375 13.8186 10.5427 13.8186C12.6517 13.8186 14.3612 12.109 14.3612 10.0001C14.3612 7.89109 12.6517 6.18146 10.5427 6.18146C8.43375 6.18146 6.72412 7.89109 6.72412 10.0001Z" stroke="black" stroke-width="1.5" stroke-linecap="round" stroke-linejoin="round"/>
</svg>
