<svg width="40" height="40" viewBox="0 0 40 40" fill="none" xmlns="http://www.w3.org/2000/svg">
<rect x="0.5" y="0.5" width="39" height="39" rx="19.5" stroke="#CBD5E1"/>
<path d="M20 9.17188C21.2004 9.17188 22.3546 9.61904 23.2402 10.4209L23.4141 10.5859C24.3195 11.4914 24.8281 12.7195 24.8281 14V20L24.8223 20.2393C24.7618 21.4321 24.2607 22.5635 23.4121 23.4121C22.507 24.3172 21.28 24.8266 20 24.8281L19.7607 24.8223C18.5679 24.7618 17.4365 24.2607 16.5879 23.4121C15.6828 22.507 15.1734 21.28 15.1719 20V14C15.1719 12.7996 15.619 11.6454 16.4209 10.7598L16.5859 10.5859C17.4914 9.68049 18.7195 9.17188 20 9.17188ZM20 11.3281C19.3799 11.3281 18.7821 11.5439 18.3066 11.9336L18.1104 12.1104C17.6093 12.6114 17.3281 13.2914 17.3281 14V20C17.3281 20.6201 17.5439 21.2179 17.9336 21.6934L18.1104 21.8896C18.6114 22.3907 19.2914 22.6719 20 22.6719C20.6201 22.6719 21.2179 22.4561 21.6934 22.0664L21.8896 21.8896C22.3907 21.3886 22.6719 20.7086 22.6719 20V14C22.6719 13.3799 22.4561 12.7821 22.0664 12.3066L21.8896 12.1104C21.3886 11.6093 20.7086 11.3281 20 11.3281ZM18.9219 28.5107L18.8809 28.5059C16.9474 28.2488 15.1632 27.3416 13.8174 25.9404L13.5537 25.6533C12.1821 24.0891 11.4245 22.0804 11.4219 20C11.4219 19.7497 11.5087 19.5083 11.666 19.3164L11.7373 19.2373C11.9395 19.0351 12.2141 18.9219 12.5 18.9219C12.7503 18.9219 12.9917 19.0087 13.1836 19.166L13.2627 19.2373C13.4649 19.4395 13.5781 19.7141 13.5781 20C13.5781 21.5968 14.1725 23.1325 15.2393 24.3105L15.459 24.541C16.6633 25.7453 18.2968 26.4219 20 26.4219C21.5968 26.4219 23.1325 25.8275 24.3105 24.7607L24.541 24.541C25.7454 23.3367 26.4219 21.7032 26.4219 20C26.4219 19.7497 26.5087 19.5083 26.666 19.3164L26.7373 19.2373C26.9395 19.0351 27.2141 18.9219 27.5 18.9219C27.7503 18.9219 27.9917 19.0087 28.1836 19.166L28.2627 19.2373C28.4649 19.4395 28.5781 19.7141 28.5781 20L28.5684 20.3887C28.484 22.2002 27.8291 23.9393 26.6963 25.3555L26.4463 25.6533C25.0745 27.2175 23.1815 28.2317 21.1191 28.5059L21.0781 28.5107V30.5C21.0781 30.7503 20.9913 30.9917 20.834 31.1836L20.7627 31.2627C20.5605 31.4649 20.2859 31.5781 20 31.5781C19.7497 31.5781 19.5083 31.4913 19.3164 31.334L19.2373 31.2627C19.0351 31.0605 18.9219 30.7859 18.9219 30.5V28.5107Z" fill="#475569" stroke="#475569" stroke-width="0.09375"/>
</svg>
